<?xml version="1.0" encoding="UTF-8"?>
<svg id="Layer_1" xmlns="http://www.w3.org/2000/svg" version="1.1" viewBox="0 0 300 300">
  <!-- Generator: Adobe Illustrator 30.2.1, SVG Export Plug-In . SVG Version: 2.1.1 Build 1)  -->
  <defs>
    <style>
      .st0 {
        stroke-width: 2.9px;
      }

      .st0, .st1, .st2, .st3 {
        stroke: #e8a020;
      }

      .st0, .st4 {
        fill: #141414;
      }

      .st5 {
        stroke-width: 2.2px;
      }

      .st5, .st6, .st7, .st8, .st1, .st9, .st10, .st11, .st2, .st3, .st12, .st13 {
        fill: none;
      }

      .st5, .st6, .st7, .st8, .st9, .st10, .st11, .st2, .st3 {
        stroke-linecap: round;
      }

      .st5, .st8 {
        stroke: #a89f94;
      }

      .st6 {
        stroke: #6b2e25;
      }

      .st7 {
        stroke-width: 5px;
      }

      .st7, .st1 {
        opacity: .4;
      }

      .st7, .st1, .st10, .st4, .st12 {
        isolation: isolate;
      }

      .st7, .st9 {
        stroke: #c0392b;
      }

      .st14 {
        fill: #0d0d0d;
      }

      .st8, .st9 {
        stroke-width: 3px;
      }

      .st1 {
        stroke-width: 1.2px;
      }

      .st15 {
        fill: #e8a020;
      }

      .st10 {
        opacity: .35;
        stroke: #000;
        stroke-width: 4.5px;
      }

      .st4 {
        font-family: Impact, Impact;
        font-size: 22px;
      }

      .st11 {
        stroke: #4a4740;
      }

      .st2 {
        stroke-width: 2.8px;
      }

      .st3 {
        stroke-width: 3.5px;
      }

      .st12 {
        opacity: .3;
        stroke: #141414;
        stroke-width: .5px;
      }

      .st13 {
        stroke: #3d3a36;
        stroke-width: 1.5px;
      }
    </style>
  </defs>
  <rect class="st14" width="300" height="300" rx="20" ry="20"/>
  <g>
    <rect class="st0" x="8" y="54" width="284" height="192" rx="10" ry="10"/>
    <path class="st13" d="M37.4,155c35.88-62.19,115.38-83.51,177.57-47.63,19.79,11.42,36.21,27.84,47.63,47.63"/>
    <path class="st7" d="M233.6,120.4c11.61,9.75,21.43,21.46,29,34.6"/>
    <line class="st8" x1="39.1" y1="156" x2="56.5" y2="166"/>
    <line class="st11" x1="45.1" y1="146.6" x2="53.3" y2="152.3"/>
    <line class="st11" x1="51.9" y1="137.7" x2="59.6" y2="144.2"/>
    <line class="st11" x1="59.5" y1="129.5" x2="66.6" y2="136.6"/>
    <line class="st5" x1="67.7" y1="121.9" x2="80.6" y2="137.3"/>
    <line class="st11" x1="76.6" y1="115.1" x2="82.3" y2="123.3"/>
    <line class="st11" x1="86" y1="109.1" x2="91" y2="117.8"/>
    <line class="st11" x1="95.9" y1="104" x2="100.1" y2="113.1"/>
    <line class="st5" x1="106.2" y1="99.7" x2="113.1" y2="118.5"/>
    <line class="st11" x1="116.9" y1="96.4" x2="119.5" y2="106"/>
    <line class="st11" x1="127.8" y1="93.9" x2="129.5" y2="103.8"/>
    <line class="st11" x1="138.8" y1="92.5" x2="139.7" y2="102.4"/>
    <line class="st5" x1="150" y1="92" x2="150" y2="112"/>
    <line class="st11" x1="161.2" y1="92.5" x2="160.3" y2="102.4"/>
    <line class="st11" x1="172.2" y1="93.9" x2="170.5" y2="103.8"/>
    <line class="st11" x1="183.1" y1="96.4" x2="180.5" y2="106"/>
    <line class="st5" x1="193.8" y1="99.7" x2="186.9" y2="118.5"/>
    <line class="st11" x1="204.1" y1="104" x2="199.9" y2="113.1"/>
    <line class="st11" x1="214" y1="109.1" x2="209" y2="117.8"/>
    <line class="st11" x1="223.4" y1="115.1" x2="217.7" y2="123.3"/>
    <line class="st3" x1="232.3" y1="121.9" x2="219.4" y2="137.3"/>
    <line class="st6" x1="240.5" y1="129.5" x2="233.4" y2="136.6"/>
    <line class="st6" x1="248.1" y1="137.7" x2="240.4" y2="144.2"/>
    <line class="st6" x1="254.9" y1="146.6" x2="246.7" y2="152.3"/>
    <line class="st9" x1="260.9" y1="156" x2="243.5" y2="166"/>
    <line class="st10" x1="150" y1="220" x2="243.4" y2="144.4"/>
    <line class="st2" x1="150" y1="220" x2="241.9" y2="142.9"/>
    <circle class="st1" cx="150" cy="220" r="22"/>
    <circle class="st15" cx="150" cy="220" r="20"/>
    <text class="st4" transform="translate(138.39 227)"><tspan x="0" y="0">RS</tspan></text>
    <circle class="st12" cx="150" cy="220" r="17.5"/>
  </g>
</svg>