<?xml version="1.0" encoding="UTF-8"?>
<svg id="Layer_1" data-name="Layer 1" xmlns="http://www.w3.org/2000/svg" viewBox="0 0 400 350">
  <defs>
    <style>
      .cls-1 {
        font-size: 18.7px;
      }

      .cls-1, .cls-2, .cls-3, .cls-4, .cls-5, .cls-6, .cls-7, .cls-8, .cls-9 {
        isolation: isolate;
      }

      .cls-1, .cls-3, .cls-7 {
        font-family: Impact, Impact;
      }

      .cls-1, .cls-10 {
        fill: #141414;
      }

      .cls-2 {
        opacity: .3;
        stroke: #141414;
        stroke-width: .43px;
      }

      .cls-2, .cls-4, .cls-11, .cls-12, .cls-13, .cls-14, .cls-5, .cls-15, .cls-16, .cls-17, .cls-18, .cls-8, .cls-19, .cls-9 {
        fill: none;
      }

      .cls-2, .cls-4, .cls-12, .cls-13, .cls-14, .cls-5, .cls-15, .cls-16, .cls-17, .cls-10, .cls-18, .cls-8, .cls-19, .cls-9 {
        stroke-miterlimit: 3.4;
      }

      .cls-3 {
        font-size: 36.56px;
        letter-spacing: .12em;
      }

      .cls-3, .cls-20 {
        fill: #e8a020;
      }

      .cls-4 {
        stroke-width: 4.25px;
      }

      .cls-4, .cls-12, .cls-13, .cls-14, .cls-5, .cls-16, .cls-17, .cls-18, .cls-19 {
        stroke-linecap: round;
      }

      .cls-4, .cls-13 {
        stroke: #c0392b;
      }

      .cls-4, .cls-9 {
        opacity: .4;
      }

      .cls-21 {
        fill: #0d0d0d;
      }

      .cls-22 {
        letter-spacing: .39em;
      }

      .cls-23 {
        letter-spacing: .39em;
      }

      .cls-24 {
        letter-spacing: .34em;
      }

      .cls-25 {
        letter-spacing: .35em;
      }

      .cls-11 {
        stroke-width: 1.5px;
      }

      .cls-11, .cls-12, .cls-17, .cls-10, .cls-8, .cls-9 {
        stroke: #e8a020;
      }

      .cls-12 {
        stroke-width: 2.98px;
      }

      .cls-13, .cls-19 {
        stroke-width: 2.55px;
      }

      .cls-14 {
        stroke: #4a4740;
      }

      .cls-14, .cls-18 {
        stroke-width: .85px;
      }

      .cls-5 {
        opacity: .35;
        stroke: #000;
        stroke-width: 3.83px;
      }

      .cls-15 {
        stroke: #3d3a36;
        stroke-width: 1.28px;
      }

      .cls-16 {
        stroke-width: 1.87px;
      }

      .cls-16, .cls-19 {
        stroke: #a89f94;
      }

      .cls-17 {
        stroke-width: 2.38px;
      }

      .cls-10 {
        stroke-width: 2.47px;
      }

      .cls-6 {
        fill: #a89f94;
        font-family: Inter-Regular, Inter;
        font-size: 9px;
        font-variation-settings: 'opsz' 14, 'wght' 400;
      }

      .cls-18 {
        stroke: #6b2e25;
      }

      .cls-7 {
        fill: #f5f0e8;
        font-size: 47px;
        letter-spacing: .09em;
      }

      .cls-8 {
        opacity: .25;
        stroke-width: .77px;
      }

      .cls-9 {
        stroke-width: 1.02px;
      }
    </style>
  </defs>
  <rect class="cls-21" y="0" width="400" height="350" rx="6" ry="6"/>
  <g>
    <rect class="cls-10" x="79.3" y="11.4" width="241.4" height="163.2" rx="8.5" ry="8.5"/>
    <rect class="cls-8" x="85.25" y="17.35" width="229.5" height="151.3" rx="5.95" ry="5.95"/>
    <path class="cls-15" d="M104.29,97.25c30.5-52.86,98.08-70.98,150.94-40.48,16.82,9.7,30.78,23.67,40.48,40.48"/>
    <path class="cls-4" d="M271.06,67.84c9.87,8.29,18.21,18.24,24.65,29.41"/>
    <line class="cls-19" x1="105.73" y1="98.1" x2="120.53" y2="106.6"/>
    <line class="cls-14" x1="110.83" y1="90.11" x2="117.81" y2="94.96"/>
    <line class="cls-14" x1="116.62" y1="82.54" x2="123.16" y2="88.07"/>
    <line class="cls-14" x1="123.08" y1="75.58" x2="129.11" y2="81.61"/>
    <line class="cls-16" x1="130.04" y1="69.12" x2="141.01" y2="82.21"/>
    <line class="cls-14" x1="137.61" y1="63.34" x2="142.46" y2="70.31"/>
    <line class="cls-14" x1="145.6" y1="58.24" x2="149.85" y2="65.63"/>
    <line class="cls-14" x1="154.02" y1="53.9" x2="157.59" y2="61.64"/>
    <line class="cls-16" x1="162.77" y1="50.25" x2="168.64" y2="66.23"/>
    <line class="cls-14" x1="171.87" y1="47.44" x2="174.08" y2="55.6"/>
    <line class="cls-14" x1="181.13" y1="45.32" x2="182.58" y2="53.73"/>
    <line class="cls-14" x1="190.48" y1="44.13" x2="191.25" y2="52.54"/>
    <line class="cls-16" x1="200" y1="43.7" x2="200" y2="60.7"/>
    <line class="cls-14" x1="209.52" y1="44.13" x2="208.76" y2="52.54"/>
    <line class="cls-14" x1="218.87" y1="45.32" x2="217.43" y2="53.73"/>
    <line class="cls-14" x1="228.14" y1="47.44" x2="225.93" y2="55.6"/>
    <line class="cls-16" x1="237.23" y1="50.25" x2="231.36" y2="66.23"/>
    <line class="cls-14" x1="245.99" y1="53.9" x2="242.41" y2="61.64"/>
    <line class="cls-14" x1="254.4" y1="58.24" x2="250.15" y2="65.63"/>
    <line class="cls-14" x1="262.39" y1="63.34" x2="257.55" y2="70.31"/>
    <line class="cls-12" x1="269.96" y1="69.12" x2="258.99" y2="82.21"/>
    <line class="cls-18" x1="276.93" y1="75.58" x2="270.89" y2="81.61"/>
    <line class="cls-18" x1="283.39" y1="82.54" x2="276.84" y2="88.07"/>
    <line class="cls-18" x1="289.17" y1="90.11" x2="282.2" y2="94.96"/>
    <line class="cls-13" x1="294.27" y1="98.1" x2="279.48" y2="106.6"/>
    <line class="cls-5" x1="200" y1="152.5" x2="279.39" y2="88.24"/>
    <line class="cls-17" x1="200" y1="152.5" x2="278.12" y2="86.97"/>
    <circle class="cls-9" cx="200" cy="152.5" r="18.7"/>
    <circle class="cls-20" cx="200" cy="152.5" r="17"/>
    <text class="cls-1" transform="translate(190.13 158.45)"><tspan x="0" y="0">RS</tspan></text>
    <circle class="cls-2" cx="200" cy="152.5" r="14.88"/>
  </g>
  <line class="cls-11" x1="30" y1="186" x2="370" y2="186"/>
  <text class="cls-7" transform="translate(77.09 232.5)"><tspan x="0" y="0">RECORDING</tspan></text>
  <g>
    <text class="cls-7" transform="translate(79.01 281.98)"><tspan x="0" y="0">STUDIO</tspan></text>
    <text class="cls-3" transform="translate(240.97 281.47) scale(.96 1)"><tspan x="0" y="0">.COM</tspan></text>
  </g>
  <g>
    <line class="cls-11" x1="30" y1="291.43" x2="370" y2="291.43"/>
    <text class="cls-6" transform="translate(98.16 306.43)"><tspan class="cls-23" x="0" y="0">RECOR</tspan><tspan class="cls-24" x="47.91" y="0">D</tspan><tspan class="cls-22" x="57.5" y="0">. LEARN. CONNEC</tspan><tspan class="cls-25" x="188.41" y="0">T</tspan><tspan class="cls-22" x="197.41" y="0">.</tspan></text>
  </g>
</svg>