<?xml version="1.0" encoding="UTF-8"?>
<svg id="Layer_1" xmlns="http://www.w3.org/2000/svg" version="1.1" viewBox="0 0 600 200">
  <!-- Generator: Adobe Illustrator 30.2.1, SVG Export Plug-In . SVG Version: 2.1.1 Build 1)  -->
  <defs>
    <style>
      .st0 {
        opacity: .3;
        stroke: #141414;
        stroke-width: .3px;
      }

      .st0, .st1, .st2, .st3, .st4, .st5, .st6, .st7, .st8, .st9, .st10, .st11, .st12, .st13, .st14 {
        fill: none;
      }

      .st0, .st1, .st2, .st3, .st4, .st6, .st7, .st9, .st11, .st12, .st13, .st15, .st14 {
        stroke-miterlimit: 2.4;
      }

      .st0, .st2, .st16, .st6, .st17, .st18, .st14, .st19 {
        isolation: isolate;
      }

      .st1, .st2 {
        stroke: #c0392b;
      }

      .st1, .st2, .st3, .st4, .st6, .st7, .st9, .st11, .st13 {
        stroke-linecap: round;
      }

      .st1, .st3 {
        stroke-width: 1.8px;
      }

      .st20, .st21 {
        fill: #f49b00;
        stroke: #f49b00;
      }

      .st2 {
        stroke-width: 3px;
      }

      .st2, .st14 {
        opacity: .4;
      }

      .st22 {
        fill: #0d0d0d;
      }

      .st23 {
        fill: #a89f94;
      }

      .st3, .st4 {
        stroke: #a89f94;
      }

      .st4 {
        stroke-width: 1.32px;
      }

      .st5, .st8, .st9, .st11, .st15, .st14 {
        stroke: #e8a020;
      }

      .st5, .st8, .st10 {
        stroke-width: 1.5px;
      }

      .st6 {
        opacity: .35;
        stroke: #000;
        stroke-width: 2.7px;
      }

      .st17 {
        font-size: 13.2px;
      }

      .st17, .st18, .st19 {
        font-family: Impact, Impact;
      }

      .st17, .st15 {
        fill: #141414;
      }

      .st7 {
        stroke: #4a4740;
      }

      .st7, .st13 {
        stroke-width: .6px;
      }

      .st8, .st21 {
        display: none;
      }

      .st24, .st18 {
        fill: #e8a020;
      }

      .st9 {
        stroke-width: 1.68px;
      }

      .st10 {
        stroke: #252525;
      }

      .st11 {
        stroke-width: 2.1px;
      }

      .st18 {
        font-size: 34px;
        letter-spacing: .05em;
      }

      .st12 {
        stroke: #3d3a36;
        stroke-width: .9px;
      }

      .st13 {
        stroke: #6b2e25;
      }

      .st15 {
        stroke-width: 1.74px;
      }

      .st14 {
        stroke-width: .72px;
      }

      .st19 {
        fill: #f5f0e8;
        font-size: 42px;
        letter-spacing: .07em;
      }
    </style>
  </defs>
  <rect class="st22" width="600" height="200" rx="10" ry="10"/>
  <g>
    <rect class="st15" x="19.8" y="42.4" width="170.4" height="115.2" rx="6" ry="6"/>
    <path class="st12" d="M37.44,103c21.53-37.31,69.23-50.11,106.54-28.58,11.87,6.85,21.73,16.71,28.58,28.58"/>
    <path class="st2" d="M155.16,82.24c6.97,5.85,12.86,12.88,17.4,20.76"/>
    <line class="st3" x1="38.46" y1="103.6" x2="48.9" y2="109.6"/>
    <line class="st7" x1="42.06" y1="97.96" x2="46.98" y2="101.38"/>
    <line class="st7" x1="46.14" y1="92.62" x2="50.76" y2="96.52"/>
    <line class="st7" x1="50.7" y1="87.7" x2="54.96" y2="91.96"/>
    <line class="st4" x1="55.62" y1="83.14" x2="63.36" y2="92.38"/>
    <line class="st7" x1="60.96" y1="79.06" x2="64.38" y2="83.98"/>
    <line class="st7" x1="66.6" y1="75.46" x2="69.6" y2="80.68"/>
    <line class="st7" x1="72.54" y1="72.4" x2="75.06" y2="77.86"/>
    <line class="st4" x1="78.72" y1="69.82" x2="82.86" y2="81.1"/>
    <line class="st7" x1="85.14" y1="67.84" x2="86.7" y2="73.6"/>
    <line class="st7" x1="91.68" y1="66.34" x2="92.7" y2="72.28"/>
    <line class="st7" x1="98.28" y1="65.5" x2="98.82" y2="71.44"/>
    <line class="st4" x1="105" y1="65.2" x2="105" y2="77.2"/>
    <line class="st7" x1="111.72" y1="65.5" x2="111.18" y2="71.44"/>
    <line class="st7" x1="118.32" y1="66.34" x2="117.3" y2="72.28"/>
    <line class="st7" x1="124.86" y1="67.84" x2="123.3" y2="73.6"/>
    <line class="st4" x1="131.28" y1="69.82" x2="127.14" y2="81.1"/>
    <line class="st7" x1="137.46" y1="72.4" x2="134.94" y2="77.86"/>
    <line class="st7" x1="143.4" y1="75.46" x2="140.4" y2="80.68"/>
    <line class="st7" x1="149.04" y1="79.06" x2="145.62" y2="83.98"/>
    <line class="st11" x1="154.38" y1="83.14" x2="146.64" y2="92.38"/>
    <line class="st13" x1="159.3" y1="87.7" x2="155.04" y2="91.96"/>
    <line class="st13" x1="163.86" y1="92.62" x2="159.24" y2="96.52"/>
    <line class="st13" x1="167.94" y1="97.96" x2="163.02" y2="101.38"/>
    <line class="st1" x1="171.54" y1="103.6" x2="161.1" y2="109.6"/>
    <line class="st6" x1="105" y1="142" x2="161.04" y2="96.64"/>
    <line class="st9" x1="105" y1="142" x2="160.14" y2="95.74"/>
    <circle class="st14" cx="105" cy="142" r="13.2"/>
    <circle class="st24" cx="105" cy="142" r="12"/>
    <text class="st17" transform="translate(98.03 146.2)"><tspan x="0" y="0">RS</tspan></text>
    <circle class="st0" cx="105" cy="142" r="10.5"/>
  </g>
  <line class="st10" x1="195" y1="25" x2="195" y2="175"/>
  <text class="st19" transform="translate(213 80)"><tspan x="0" y="0">RECORDING</tspan></text>
  <line class="st8" x1="213" y1="88" x2="585" y2="88"/>
  <g id="New_Line">
    <line class="st5" x1="210.77" y1="88" x2="582.77" y2="88"/>
  </g>
  <g id="Wave">
    <g>
      <path class="st20" d="M577.44,87.8v.23l-7.49-.02c-.21-.09-.47-.32-.8-.2l.33-1.49c.17.33.21.53.28.85l.13.63h7.56Z"/>
      <g>
        <path class="st21" d="M433.08,87.8v-45.32h144.36v45.32h-7.56s-.13-.63-.13-.63c-.07-.32-.1-.52-.28-.85l-.33,1.49c.33-.12.59.11.8.2l7.49.02v30.91h-144.36v-30.91h7.08c.16,0,.33-.14.46-.17.38-.09.8-.06,1.16-.06l.39,1.4h1.34s.41-1.47.41-1.47l.6,2.02.25,1.07h1.37s.12.94.12.94l.15,1.16c.04.31.09.64.15.92l.36,1.69c.49-.77.05-.27.35-1.62.08-.38-.03-.79.3-1.06l.06,1.06c.06.28.1.56.15.85l.14.95.76-.04c.22-.01.22-.64.25-.88l.16-1.18c-.03.22.24-2.09.21-1.57l.07-1.28c-.05.98.25-2.48.22-1.8l.1-1.28.12,1.13.13.84.17,1.26.37-1.37.5-1.78.44,1.47.42-1.43c.12,0,.4-.05.37-.18-.06-.27-.12-.64-.18-.81l-.61-2.02c-.29.05-.45-.13-.56-.53l-.29-1.09-.51-.02-.37-1.71-.48,1.6c-.04-.65-.04-1.03-.03-1.66,0-.18-.1-.51-.12-.72-.11-1.14.1-2.13-.17-2.55v-2.42c-.3-.25-.45,1.98-.49,2.43-.27-.04-.34-3.53-.62-2.63l-.11.37c-.16.52-.22.93-.28,1.48-.03.32-.1.67-.1,1.04.02,1.23-.21.41-.15,2.43l-.27-.04c0-.45-.04-.72-.13-1.05l-.04-.99h-.26s-.04.91-.04.91l-.15.94-.15.94c-.08.5-.33,1.14-.45,1.61-.14.02-.34.05-.41.14-.25.29.03.83-.22,1.42l-.07.62-.18.94-.36-1.36-.53-1.84-.09,1.11-.14.84c-.07.39-.1.71-.16,1.25l-.46-1.55-.16,1.26-.15,1.16-.1.77-.19-1.26c-.04-.28-.09-.56-.15-.84l-.04-1h-.53s-.14.86-.14.86l-.08.84c-.22.53-.04,1.09-.14,1.08h-.21s-.07-.2-.09-.3l-.15-.92c-.22.33-.4.88-.4,1.45h-7.43ZM512.3,99.41c.02-.1.17-.26.23-.25s.07.21.1.39l.14.67c.01.06.09.19.11.14l.06-.23.12-.48c-.06-2.05.23-.92.15-2.32-.02-.43.01-.84.28-.95l.02,1.47.13.43c.07.24,0,.92.04,1.2.08.35.11.66.13,1.09h.38s.15-.95.15-.95c.06-.38.02-1.19.03-1.57,0-.09.12-.36.13-.44.03-.4-.01-1.23.05-1.65s.11-.75.14-1.23c0-.28.07-.27.11,0-.06,1.81.16,1.18.16,1.99,0,.31-.03.72.02.91l.23.97.05-2.06.12-.29c0-.59,0-1.22.04-1.8.01-.17.12-.52.12-.71v-1.03c0-1.07.27,1.38.23,1.12l.15,1.17.12.82.11-1.13.14-.84.15-1.17.14-.93.15-1.17.13-1.02c0-.05.07-.2.08-.15l.02.26c.03.32.07.62.13.92l.14.85.07,1.04c.03-.06.07-.16.11-.25l.44-1.42h1.68c.27-.69.18-1.98.5-2.83l.13.23.18.69c.04.16.26.33.35.32.09-.01.23-.19.27-.33l.4-1.19c.02.28.41,1.85.49,1.49l.05-.24c.06-.28.1-.5.13-.92.74-.04,1.58.18,2.35-.08l.59-.2.22-.02s0-.24-.02-.29l-.33-1.12-.41,1.46h-2.68s-.12-.94-.12-.94l-.14-.94c-.17-1.18-.1-1.33-.61-2.7-.21-.13-.67-.11-.88,0l-.5,1.44-.2-1.06c-.02-.12-.15-.23-.22-.24-.23-.04.05.75-.2,1.34l-.08.62-.15.81h-.08s-.19-.88-.19-.88l-.56-1.98c-.12-.41-.11-.86-.17-1.27l-.14-.93c-.06-.4-.1-.7-.13-1.17h-.54s-.05.99-.05.99l-.15.85c-.07.4-.11.7-.1,1.23-.01.03-.08.15-.13.21.04-1.94-.19-1.4-.16-2.47.01-.4-.11-.7-.13-1.06l-.03-1.14-.42-1.52-.49-1.76-.37-1.41c-.05-.21-.14-.32-.13-.02l-.13.76-.15.85-.09,1.11c-.42-1.29-.11-.43-.33-1.9-.06-.39-.14-.87-.25-1.23h-1.2c-.26.53-.23,2.73-.58,2.83l-.17-1.31c-.05-.41,0-.97-.29-1.08-.04.6-.21,1.99-.29,2.36l-.06.25c-.12.51-.08-.61-.17-1.17l-.11-.69-.2-1.07-.1,1.12-.14.85-.15.93c-.19,1.24-.27.99-.41,1.8-.11.65-.12-.55-.24-1.34-.26-1.63-.08-1.08-.4-2.4l-.26-1.06h-.51c-.05.56-.07.79-.12,1.17l-.15,1.16c-.04.31-.13.55-.15.86l-.06,1.2c-.02.38-.13.66-.12,1.06s-.05.72-.11,1.04l-.09,1.29-.13-.89c-.28-1.08.08-.25-.21-1.72-.06-.3-.04-1.02-.04-1.33,0-.09-.21-.2-.24-.11l-.11.36c-.16.52-.22.92-.27,1.48-.03.32-.11.67-.1,1.05s-.07.71-.11,1.05l-.05,1.39c-.12,0-.27.02-.27-.05v-.31c.02-1.35-.18-.2-.16-1.72h-.27s-.02.91-.02.91c-.1.39-.14.7-.16,1.21-.22-.14-.3-.53-.26-.99.02-.28-.1-.56-.11-.85l-.07-1.28c-.02-.38-.1-.57-.13-1.06.03-.05-.32-.1-.38.03-.13.29-.21,1-.17,1.43.02.25-.1.51-.11.75l-.07,1.29-.15.83h-.06c-.06-.52-.1-.81-.17-1.22s.09-.9-.3-1.09v1.94s-.14.35-.14.35l-.02,1.75-.14.43c0,.31.04.87-.09,1.23l-.09-2.03c0-.17-.12-.52-.12-.7l.02-1.09c0-.16-.09-.47-.13-.6-.09-.51.08-1.05-.14-1.57l-.06,2c0,.11-.13.42-.13.54l.02,1.38c0,.11-.13.42-.13.54l-.06,1.76c-.1-.32-.11-.55-.15-.86l-.14-1.07c-.05-.37-.1-.64-.1-1.17h-1.87s-.02-.93-.02-.93c-.33-.95.06-1.2-.24-2.03l-.08-1.58-.2,1.21-.07,1.75c-.01.24-.11.51-.11.72l-.02,1.63c-.11-.23-.25-.56-.25-.72l-.03-1.75c-.28-.58-.03-1.25-.17-2.09-.06-.37-.09-.59-.13-1.06.02-.03-.26-.07-.34-.02-.13.07-.37.75-.36,1.26,0,.09-.21.2-.24.11l-.08-.31c-.07-.25-.1-.51-.15-.88-.36.06-.32,2.29-.6,2.9l-.45-1.55c-.18,1.32-.35,1.09-.53,2.62l-.14,1.17c-.03.28-.11.6-.2,1.04l-.08-1.58c-.29-.82.07-.99-.23-2.01l-.09-1.28c-.08.42-.08.69-.12,1.05l-.15.92-.15,1.16-.13.93-.16,1.16-.13.95c-.03.19-.1.56-.15.75l-.29,1.1h-5.39s-.41-1.39-.41-1.39c-.11,0-.38-.02-.43-.18l-.45-1.5-.35,1.21c-.19.66-.06.23-.26-.93l-.15-.86-.09-1.11-.43,1.44c-.05.17-.24.33-.37.33-.17,0-.5-1.28-.49-1.67h-1.4s-.52,1.48-.52,1.48l-.24-1.22c-.15-.06-.28.35-.28.65v.94c-.37.87.15,1.82-.42,2.13v-1.93c-.3-.52-.06-1.23-.18-2-.07-.44-.12-.74-.13-1.19v-.25c-.11-2.3-.13,2.4-.15,1.02l-.15.84-.19,1.07-.12-1.19-.13-.78c-.21-1.27.02-1.22-.65-2.67-.13,1.5.1.88-.14,2.38-.07.43-.02,1.28-.05,1.73,0,.08-.12.35-.12.45l-.03,1.67c-.28-.46-.02-1.01-.14-1.47-.09-.34-.13-.63-.12-1.07,0-.22-.09-.52-.1-.71l-.1-1.59-.14.88-.14,1.06-.17,1.29-.12-.87-.14-.85c-.06-.36-.08-.65-.13-1.1-.06-.71-.47-1.11-.41-1.88,0-.05-.12-.04-.13-.02l-.04.96c-.31.74.06,1.2-.23,1.95l-.07,1.57c-.11-.3-.2-.59-.23-.78l-.13-.96c-.19-1.43-.12-1.23-.57-2.64-.06.67-.14,1.02-.16,1.5l-.07,1.68c0,.24-.11.51-.11.72,0,.62,0,1.02-.04,1.66l-.2-.92c-.14-.68.04-1.57-.08-2.28-.04-.23-.11-.5-.11-.73v-1.81c-.3-.5-.04-1.3-.18-2.08-.29-1.61.08-.41-.23-2.06-.06-.32,0-.91-.06-1.2-.3-1.32.06-.18-.22-1.81l-.15-.85-.07-1.08-.25.45v1.69c0,.08-.12.36-.13.44-.03.4.01,1.23-.05,1.65s-.11.76-.14,1.22c-.02.28-.07.29-.08,0l-.15-1.3-.13-1.07-.16-1.16-.06-.99c-.3-.91.07-1-.23-2.02l-.08-1.04-.39,1.4c-.32,1.14.05.85-.24,2.14-.07.29,0,.88-.06,1.2-.31,1.63.06.38-.22,2.07-.07.43-.02,1.29-.05,1.72-.01.08-.13.36-.13.44v1.57c0,.08-.12.36-.13.44-.03.43.02,1.3-.05,1.72l-.14.88c-.04.27-.26,1.91-.26,2.09,0,.45-.45.65-.56.38l-.02-1.82c-.02-.08-.14-.35-.14-.44v-1.57c0-.08-.12-.36-.13-.44-.03-.44.02-1.3-.05-1.72-.07-.38-.11-.62-.11-1,0-.41-.1-.68-.12-1.07l-.06-1.13s-.26-2.24-.3-2.39c-.1-.43-.19-.71-.33-1.21-.41.85-.28,1.63-.87,1.5l-.47,1.56-.48.14c-.41.97-.13,1.58-.69,1.57l-1.02-.02-.53-1.7c-.06.62-.19,1.18-.45,1.55-.04-.55-.07-.85-.16-1.24l-.04-.7-.17-.98-.29-1.2-.54-1.86c-.02-.08.02-.39-.02-.39h-.19c-.08,0-.3-.04-.33.07l-.1.4-.33,1.34c-.1.42,0,1.29-.05,1.73-.25.5-.07,1.61-.16,2.8-.01.2-.12.54-.12.72v2.06c-.35-.22-.24-.62-.31-.98-.08-.38-.12-.73-.15-1.22.04-.28-.06-.19-.15,0l-.15,1.2-.14.93c-.05.31-.11.59-.11.93s-.09.55-.11.88l-.07,1.27c-.02.36-.12.61-.11,1s-.06.72-.1,1.05l-.15,1.25-.13.99c-.05.38-.13.79-.23,1.23h-1.39c0-.59-.17-1.1-.41-1.45l-.16.7c-.06.26-.08.75-.31.75h-1.26s-.4-1.4-.4-1.4h-.51s-.04-.99-.04-.99l-.15-.85c-.08-.45-.1-.86-.15-1.5-.42,1.45-.44,1.07-.63,2.64l-.15,1.17c-.04.33-.1.61-.16.92.15-.07.51.03.54.35.03.4,0,.9.05,1.25.28,1.83-.06.84.23,2.11l.1,1.06.11-1.06.15-.92.15-1.17c.06-.5.31-1.06.45-1.59.05-.18.36.12.48.14.31.07.87.13,1.17,0,1.27-.57.37.4,2.24,0,.14-.03.35-.27.47-.16.28.25.12.39.31,1.62l.14.93c.06.37.12.66.2,1.01l.39,1.73.05,1.19c.02.39.13.66.12,1.07s.04.72.11,1.05l.11.82.09-1.06.15-.92c.05-.32.11-.59.21-1.05l.08,1.58c.29.84-.08.98.23,2.04l.05.97c.01.23.11.52.16.69l.3,1.11h.48s.26-1.08.26-1.08l.52-1.84.57-2.08.37-1.37.17,1.03c.05.29.1.65.14.92l.15,1.17.14.85.07.84c.24.59-.01,1.17.21,1.11.07-.02.18-.12.2-.22l.42-1.55c.17-.64.36-1.25.56-1.9l.05-.59c.38.29.21.77.28,1.2l.15.93.14.94c.07.48.28.99.46,1.48l.43-1.47c.13-.02.33-.05.41-.12.16-.15.05-.49.22-1.52l.14-.85.08-.84.14-.85.15-1.16.14-1.08c.06-.28.54-.07.54.37v1.67s.15.45.15.45v1.59s.13.47.13.47l.03,1.95c.14-.29.12-.5.16-.79l.15-1.14.17-1.29c.09.4.08.75.06,1.17,0,.17.11.54.13.71.04.58.03,1.31.03,1.94l.14.46c.03,1.08-.11,1.38.18,2.41l.29,1.03c.08.27.42.44.5.18l.44-1.45c.05-.18.02-.62,0-.91,0-.17.12-.54.13-.71.03-.49.03-1.31.04-1.75.01-.08.13-.36.13-.45v-1.58c0-.16.21-.52.24-.5.05.48.08.75.15,1.12l.07,1.06c.26-.29.24-.61.29-.99l.14-1.18c.02-.21.11-.62.16-.83l.3-1.17.36-1.29c.02-.09.12-.2.2-.22.18-.05,0,.29.19,1.36.07.41.15.84.25,1.31l.44-1.34c.17.6.28.96.47,1.36l.17-1.36.14-1.06.14-.93.15-1.16.13-.85.13-.88.1,1.5c.02.35.12.66.11,1.05s.06.72.12,1.04l.07,1.29.35-1.21c.05-.18.12-.57.15-.77l.14-.86.08-.84c.07-.37.1-.63.15-1.15.14.15.21.5.29.82l.15.64,1.37-.03c.2-.36.3-.88.37-1.42.14-.1.37,2.22.39,2.48,0,.1.2.21.24.12-.02.05.17-2.16.39-2.63.1.56.2,1.04.38,1.44l.52.03.15-.97c.02-.1.16-.23.23-.22.23,0-.05.47.2,1.11l.07.84.14.86h.53s.03-.92.03-.92c.1-.42.25-1.79.29-2.33h.93s.4-1.41.4-1.41c1.08-.07.61.26,1.17.26l5.05-.02c.15,0,.38-.55.5-.11l.45,1.63.34,1.29h.92s.31,1.08.31,1.08l.09.65c.16-.37.19-.55.27-.87l.18-.75c.27.7.41,1.25.58,1.9l.27,1.06c.2-.44.28-.95.22-1.59-.02-.17.11-.53.12-.71.04-.46.03-.97.04-1.47h.28c0,.46,0,.94.04,1.37l.15,1.39.13,1.18c.19,0,.6.03.79-.05.31-.13.15-.79.21-1.08.07-.33.13-.62.17-.95l.15-1.17.14-.93.15-1.16c.04-.31.1-.58.19-1.05l.09,1.04.15.92c.06.39.1.7.16,1.24l.3-.94c.06-.18.08-.47.11-.76h.5s.42-1.43.42-1.43l.59,2,.25,1.07h.9s.42,1.4.42,1.4c.04.15.29.29.39.23s.25-.29.28-.44l.22-1.07.38,1.13c.06.17.15.33.23.39.07.04.31-.02.33-.15l.18-1.09c.22-1.31-.06-1.13.35-1.6.03.51.07.82.15,1.2l.05.76.19.94.2-1.11c.02-.1.27-.17.28-.07.02.34,0,1.06.06,1.39.24,1.34-.02.18.22,1.83.06.4.01,1.69.57,2.64l.08-1.34c.29-.82-.07-.99.23-2.02.06-.41-.02-.8.12-1.27l.09,1.35c.08.3.12.6.11.98s.09.71.11,1.04l.09,1.49c.06-.29.09-.52.13-.78l.15-1.16.15-1.22c.12.1.18.44.27.75l.55,1.91c.02.08.03.36.03.43.04.45.15-.79.21-1.18l.15-.86.1-1.11.2,1.28c.05.33,0,.9.06,1.2.28,1.3-.05.4.2,1.97.07.46.15.86.29,1.31l.11.37c.02.06.21-.02.21-.03l.14-.91ZM562.39,86.19l-.28-1.22s-.08-.18-.1-.21-.09.09-.1.13l-.1.51c-.07.35-.12.65-.3.83l-.07-1.06-.15-.86c-.05-.29-.19-1.72-.22-1.17v.26c-.03.43-.07.78-.14,1.17l-.14.84-.1,1.12-.12-.66-.31-1.09h-.5s-.31-1.47-.31-1.47c-.01-.07-.12-.22-.12-.17v.26c-.08,1.75-.21.2-.18,2.31l-.15.48v1.25c0,.05-.11.21-.11.16v-.26c-.03-.44-.08-.75-.14-1.18-.07-.48-.02-1.43-.04-1.89,0-.04-.13-.31-.13-.36v-1.94c-.42.22-.23.77-.32,1.19-.06.28-.13.73-.14,1.07,0,.12-.23.11-.26-.02l-.19-.85c-.36.27-.19.76-.27,1.19-.06.3-.12.7-.14,1.1.02.06-.26.06-.25.01,0-.43-.04-.72-.14-1.04l-.03-.95-.25-.04c-.05.49-.09.81-.16,1.26-.06.42.05.96-.3,1.08l-.04-1.02c-.06-.3-.11-.56-.15-.85l-.14-.95c-.29.14-.5-.14-.61-.6l-.28-1.17c-.11-.47-.28-.95-.46-1.33l-.16,1.18-.09.84-.11.67c0,.05-.06.15-.12.21.04-1.98-.19-1.36-.16-2.47,0-.4-.06-.7-.12-1.06-.04-.26-.03-.85-.05-1.11-.04-.9-.18,1.06-.23,1.36l-.15.86-.11,1.13-.1-1.06-.15-.91c-.08-.46-.11-.85-.12-1.4h-.56c.05,2.09-.18.81-.15,2.21,0,.39-.05.7-.11,1.08-.07.43,0,1.29-.25,1.54-.1.1-.38.06-.42.22l-.13.58c-.11.52-.22.91-.3,1.4l-.13.85c-.15,1-.08,1.34-.22,1.51-.06.07-.23.13-.31.13h-2.42c-.28-.72-.09-1.42-.56-1.39-.53.04-.28-1.09-.39-1.69-.07-.36-.11-.61-.11-1,.03-1.38-.21-.12-.15-2.2h-.57s0,1.92,0,1.92c-.03.08-.14.35-.14.44v1.65s-.15.44-.15.44v1.82s-7.8,0-7.8,0c-.13,0-.32-.05-.36-.18-.03-.11-.07-.36-.1-.49l-.17-.74-.95.02-.05-.77-.15-.85c-.18-1.04-.05-1.35-.22-1.52-.08-.07-.28-.11-.41-.13l-.32-1.09c-.04-.15-.13-.35-.2-.32-.06.02-.11.19-.14.32l-.17.63s-.24.03-.23-.05v-.31c.01-.35-.06-.7-.11-1.03l-.13-.85c-.07-.5-.16-.89-.3-1.4-.05-.16-.07-.53-.15-.64s-.3-.12-.46-.14l-.53-1.67-.09.68-.34,1.11-.09-.7-.35-1.12-.08,1.11-.15.85c-.12.67-.16,2.28-.22,1.21-.03-.46-.07-.83-.13-1.2l-.14-.85c-.05-.35-.02-.69-.14-1.11l-.09,1.64c-.28.57.07.92-.22,1.64l-.08,1.58c-.1-.44-.17-.75-.2-1.04l-.16-1.27c-.03-.23-.06-.58-.14-.7-.07-.1-.28-.11-.41-.13l-.43-1.47c-.19.49-.39,1-.47,1.48l-.14.85-.07.84c-.25.6.01,1.15-.2,1.11-.05,0-.18-.09-.19-.16-.06-.24-.23-.76-.26-1.02l-.14-.93-.14-.95c-.05-.3-.03-.71-.11-1.01l-.34-1.28c-.02-.08-.02-.36-.02-.43s-.21-.08-.25-.04c-.1.37-.24,1.03-.32,1.47l-.12.78c-.06.38.06,1.21-.03,1.55l-.14.53-.02,1.68-.14.47v1.37c-.16.03-.37.06-.46.14-.27.25.05,1.21-.24,1.99l-.03,1.15c-.12.34-.21,1.08-.07,1.34.05.1.37-.02.37.11v.52c0,.35.05.64.11.99.07.4.03,1.24.04,1.64,0,.09.12.36.13.45.03.43-.02,1.3.05,1.72l.15.88.37.02.12.93.15,1.16c.05.39.07.8.29.96l.15-.67c.04-.19.07-.53.15-.64s.31-.12.45-.15c.5-1.19.39-1.79.95-3.1.27.81.15,1.26.47,1.56.03-.25.04-.5.07-.61l.31-1.08h.49s.13-.63.13-.63c.06-.3.12-.53.26-.84l.41,1.47h1.34s.42-1.46.42-1.46c.23.46.37.89.38,1.47l1.87-.02.42-1.5.48-1.75h.51c.01-.47.13-1.04.33-1.29.3-.39.66.1.91.1l8.01.04c.64,1.79.3,1.04.55,2.56l.14.85.11,1.13.11-.82.15-.93c.16-.97.07-1.19.28-1.93l.3-1.06c.07-.24.36.18.49.18l2.58.02.1-.23s.1.02.1.06-.02.32,0,.36l.54,1.81c.1.33.09.56.27.87l.22-.86c.02-.08-.02-.39.03-.38l.25.03c-.06,1.87.14,1.24.15,2.29.01,1.28.19.06.15,2.09h.57s0-1.92,0-1.92c.02-.08.14-.36.14-.44v-1.88c.32-.46,0-1.69.21-2.12.11.52.08,1.2.06,1.7.02-.67.28,2.69.16,2.29l.13.45v1.9s1.45,0,1.45,0v-1.4s.15-.46.15-.46c-.09-1.56.14-1.91.15-2.41l.02-1.64c.47,1.06.16,1.18.3,2.03.3,1.82-.13.82.31,2.28l.81-.04c.14-.43.34-.94.41-1.38l.14-.94.13-.93.15-1.2c.09-.2.19-.31.14.02.07.39.2.91.35,1.12.1.14.49.16.54-.03.07-.29.15-.7.21-1.01s.56-.45.64-.18l.4,1.35.44-1.5.41,1.44.91.02.4-1.41h1.38s.36,1.15.36,1.15l.2.02.17-.71.05-.21s.19-.04.2,0l.19.69c.02.06.01.22.05.22h.19s.42-1.26.42-1.26c.11.66.2,1.07.44,1.58l.2-1.04c.07-.36.27-.5.57-.46l-.32-1.47c-.17.34-.2.53-.28.85l-.17.75-.1-.59-.15-.92c-.19-1.16-.04-1.44-.2-1.43-.07,0-.2.13-.22.25l-.19,1.05c-.17-.44-.28-.79-.41-1.24l-.17-.03c-.11.41-.25.82-.42,1.25-.09-.55-.2-1.08-.38-1.44l-.54-.04c-.03.62-.16,1.11-.41,1.42ZM455.41,87.79c-.21-.62-.28-.87-.31-1.38h-.97s-.51,1.5-.51,1.5c-.1-.57-.2-1.09-.38-1.46l-.52-.04c-.06.56-.15.88-.32,1.38l.86.03.36,1.14h.16s.36-1.15.36-1.15l1.29-.02ZM567.3,87.74l-.41-1.38-.42,1.39c.3.06.55.06.82,0ZM568.17,87.74l-.41-1.38-.41,1.39c.3.06.54.06.82,0ZM569.04,87.74l-.41-1.38-.41,1.39c.3.06.54.06.82,0Z"/>
        <g>
          <g>
            <path class="st20" d="M455.41,87.79l-1.29.02-.36,1.16h-.16s-.36-1.15-.36-1.15l-.86-.03c.17-.5.26-.82.32-1.38l.52.04c.18.37.29.89.38,1.46l.51-1.49h.97c.03.51.1.76.31,1.37Z"/>
            <path class="st20" d="M433.08,88.03v-.23h7.43c0-.58.18-1.12.4-1.45l.15.92c.02.09.04.29.09.29h.21c.1.01-.08-.55.14-1.08l.08-.84.14-.86h.53s.04.99.04.99c.06.29.11.56.15.84l.19,1.26.1-.77.15-1.16.16-1.26.46,1.55c.06-.54.1-.86.16-1.25l.14-.84.09-1.11.53,1.84.36,1.36.18-.94.07-.62c.25-.59-.03-1.14.22-1.42.07-.09.27-.12.41-.14.13-.47.37-1.1.45-1.61l.15-.94.15-.94.04-.91h.26s.04.99.04.99c.09.32.13.59.13,1.05l.27.04c-.06-2.02.17-1.2.15-2.43,0-.37.06-.72.1-1.04.06-.56.11-.96.28-1.48l.11-.37c.28-.89.35,2.59.62,2.63.04-.45.19-2.68.48-2.43v2.42c.28.42.08,1.41.18,2.55.02.21.12.54.12.72,0,.63,0,1.01.03,1.66l.48-1.6.37,1.71.51.02.29,1.09c.11.4.27.58.56.53l.61,2.02c.05.17.11.54.18.81.03.14-.25.17-.37.18l-.42,1.43-.44-1.47-.5,1.78-.37,1.37-.17-1.26-.13-.84-.12-1.13-.1,1.28c.02-.68-.28,2.78-.22,1.8l-.07,1.28c.03-.52-.24,1.79-.21,1.57l-.16,1.18c-.03.24-.03.86-.25.88l-.76.04-.14-.95c-.04-.29-.09-.57-.15-.85l-.06-1.06c-.33.27-.22.68-.3,1.06-.3,1.35.14.84-.35,1.62l-.36-1.69c-.06-.28-.11-.6-.15-.92l-.15-1.16-.12-.94h-1.37s-.25-1.06-.25-1.06l-.6-2.02-.41,1.47h-1.34s-.39-1.4-.39-1.4c-.35,0-.78-.03-1.16.06-.13.03-.3.18-.46.18h-7.08Z"/>
          </g>
          <g>
            <path class="st20" d="M567.3,87.74c-.28.07-.52.07-.82,0l.42-1.39.41,1.38Z"/>
            <path class="st20" d="M568.17,87.74c-.27.07-.52.07-.82,0l.41-1.39.41,1.38Z"/>
            <path class="st20" d="M569.04,87.74c-.27.07-.52.07-.82,0l.41-1.39.41,1.38Z"/>
          </g>
          <g>
            <path class="st20" d="M512.3,99.41l-.14.91s-.19.09-.21.03l-.11-.37c-.13-.46-.21-.85-.29-1.31-.25-1.57.09-.68-.2-1.97-.07-.3,0-.87-.06-1.2l-.2-1.28-.1,1.11-.15.86c-.06.38-.17,1.62-.21,1.18,0-.07-.01-.35-.03-.43l-.55-1.91c-.09-.31-.15-.65-.27-.75l-.15,1.22-.15,1.16c-.03.27-.07.49-.13.78l-.09-1.49c-.02-.33-.12-.66-.11-1.04s-.03-.68-.11-.98l-.09-1.35c-.13.47-.06.86-.12,1.27-.3,1.03.07,1.2-.23,2.02l-.08,1.34c-.56-.95-.51-2.24-.57-2.64-.24-1.65.02-.49-.22-1.83-.06-.33-.03-1.05-.06-1.39,0-.1-.26-.02-.28.07l-.2,1.11-.19-.94-.05-.76c-.09-.38-.12-.7-.15-1.2-.41.47-.13.29-.35,1.6l-.18,1.09c-.02.12-.26.19-.33.15-.08-.05-.17-.22-.23-.39l-.38-1.13-.22,1.07c-.03.15-.18.39-.28.44s-.34-.08-.39-.23l-.42-1.41h-.9s-.25-1.06-.25-1.06l-.59-2-.42,1.44h-.5c-.02.28-.05.58-.11.76l-.3.94c-.06-.54-.1-.86-.16-1.24l-.15-.92-.09-1.04c-.09.46-.15.74-.19,1.05l-.15,1.16-.14.93-.15,1.17c-.04.32-.1.61-.17.95-.06.29.1.95-.21,1.08-.19.08-.6.06-.79.05l-.13-1.18-.15-1.39c-.05-.43-.04-.91-.04-1.37h-.28c0,.49,0,1.01-.04,1.47-.01.17-.14.53-.12.71.06.64-.02,1.15-.22,1.59l-.27-1.06c-.17-.66-.31-1.2-.58-1.9l-.18.75c-.07.32-.11.5-.27.87l-.09-.65-.31-1.08h-.92s-.34-1.29-.34-1.29l-.45-1.63c-.12-.44-.36.11-.5.11l-5.05.02c-.56,0-.09-.33-1.17-.26l-.4,1.42h-.93c-.04.53-.19,1.9-.29,2.32l-.03.92h-.53s-.14-.86-.14-.86l-.07-.84c-.25-.64.02-1.11-.2-1.11-.06,0-.21.13-.23.22l-.15.97-.52-.03c-.18-.4-.28-.88-.38-1.44-.22.46-.41,2.68-.39,2.63-.03.08-.23-.02-.24-.12-.02-.25-.25-2.57-.39-2.48-.07.54-.17,1.06-.37,1.42l-1.37.03-.15-.64c-.07-.33-.15-.67-.29-.82-.05.52-.08.78-.15,1.15l-.08.84-.14.86c-.03.2-.09.59-.15.77l-.35,1.21-.07-1.29c-.06-.32-.13-.65-.12-1.04s-.09-.7-.11-1.05l-.1-1.5-.13.88-.13.85-.15,1.16-.14.93-.14,1.06-.17,1.36c-.18-.4-.29-.76-.47-1.36l-.44,1.34c-.1-.47-.18-.89-.25-1.31-.18-1.07-.01-1.41-.19-1.36-.08.02-.17.13-.2.22l-.36,1.29-.3,1.17c-.05.21-.14.63-.16.83l-.14,1.18c-.05.38-.04.7-.29.99l-.07-1.06c-.08-.37-.11-.64-.15-1.12-.03-.01-.25.34-.25.5v1.58c0,.08-.12.36-.13.45-.01.44-.01,1.26-.04,1.75-.01.17-.14.54-.13.71.01.29.05.73,0,.91l-.44,1.45c-.08.26-.43.09-.5-.18l-.29-1.03c-.29-1.03-.15-1.33-.18-2.41l-.14-.46c0-.62,0-1.35-.03-1.94-.01-.17-.13-.54-.13-.71.02-.43.03-.77-.06-1.17l-.17,1.29-.15,1.14c-.04.29-.01.5-.16.79l-.03-1.95-.14-.47v-1.59s-.13-.45-.13-.45v-1.67c0-.44-.49-.65-.55-.37l-.14,1.08-.15,1.16-.14.85-.08.84-.14.85c-.17,1.02-.06,1.36-.22,1.52-.08.07-.27.1-.41.12l-.43,1.47c-.19-.49-.39-1-.46-1.48l-.14-.94-.15-.93c-.07-.43.09-.91-.28-1.2l-.05.59c-.2.65-.38,1.25-.56,1.9l-.42,1.55c-.03.1-.13.2-.2.22-.22.05.04-.53-.21-1.11l-.07-.84-.14-.85-.15-1.17c-.03-.27-.09-.63-.14-.92l-.17-1.03-.37,1.37-.57,2.08-.52,1.84-.26,1.08h-.48s-.3-1.12-.3-1.12c-.05-.18-.14-.46-.16-.69l-.05-.97c-.31-1.06.06-1.2-.23-2.04l-.08-1.58c-.1.46-.15.73-.21,1.05l-.15.92-.09,1.06-.11-.82c-.07-.33-.12-.65-.11-1.05s-.11-.68-.12-1.07l-.05-1.19-.39-1.73c-.08-.35-.15-.64-.2-1.01l-.14-.93c-.19-1.23-.03-1.36-.31-1.62-.12-.11-.33.13-.47.16-1.87.4-.97-.57-2.24,0-.3.14-.86.07-1.17,0-.13-.03-.43-.32-.48-.14-.14.53-.39,1.1-.45,1.59l-.15,1.17-.15.92-.11,1.06-.1-1.06c-.29-1.27.06-.28-.23-2.11-.05-.35-.02-.85-.05-1.25-.02-.33-.39-.42-.54-.35.06-.31.12-.6.16-.92l.15-1.17c.2-1.57.21-1.2.63-2.64.05.64.07,1.05.15,1.5l.15.85.04,1h.51s.4,1.4.4,1.4h1.26c.23-.01.25-.51.31-.76l.16-.7c.24.35.4.86.41,1.45h1.39c.11-.44.18-.84.23-1.23l.13-.99.15-1.25c.04-.33.11-.67.1-1.05s.09-.64.11-1l.07-1.27c.02-.32.11-.54.11-.88s.06-.62.11-.93l.14-.93.15-1.2c.09-.2.19-.29.15,0,.03.5.07.85.15,1.22.07.36-.04.75.32.98v-2.06c0-.18.1-.52.11-.72.09-1.19-.08-2.3.16-2.8.05-.44-.05-1.31.05-1.73l.33-1.34.1-.4c.03-.11.24-.08.33-.08h.19s0,.31.02.39l.54,1.86.29,1.2.17.98.04.7c.09.39.12.69.16,1.24.26-.36.39-.92.45-1.55l.53,1.7,1.02.02c.56.01.27-.6.69-1.57l.48-.14.47-1.56c.59.14.45-.65.87-1.5.14.5.23.79.33,1.21.04.15.3,2.42.3,2.39l.06,1.13c.02.39.13.66.12,1.07,0,.38.04.63.11,1,.07.42.02,1.29.05,1.72,0,.08.13.35.13.44v1.57c0,.08.12.36.13.44l.02,1.82c.11.26.56.07.56-.38,0-.19.22-1.82.26-2.09l.14-.88c.07-.43.02-1.3.05-1.72,0-.09.13-.36.13-.44v-1.57c0-.08.12-.36.13-.44.03-.43-.02-1.29.05-1.72.29-1.69-.08-.43.22-2.07.06-.32,0-.91.06-1.2.29-1.29-.08-1,.24-2.14l.39-1.4.08,1.04c.31,1.02-.07,1.12.23,2.02l.06.99.16,1.16.13,1.07.15,1.3c.01.29.06.28.08,0,.03-.46.08-.79.14-1.22s.02-1.25.05-1.65c0-.08.13-.36.13-.44v-1.69s.25-.45.25-.45l.07,1.08.15.85c.28,1.64-.08.49.22,1.81.06.29,0,.88.06,1.2.31,1.66-.07.45.23,2.06.14.78-.12,1.58.18,2.08v1.81c0,.23.07.51.11.73.13.72-.06,1.61.08,2.28l.2.92c.05-.64.04-1.03.04-1.66,0-.2.1-.48.11-.72l.07-1.68c.02-.49.11-.84.16-1.5.44,1.41.37,1.21.57,2.64l.13.96c.03.19.12.48.23.78l.07-1.57c.29-.75-.07-1.22.23-1.95l.04-.96s.13-.03.13.02c-.06.77.35,1.17.41,1.88.04.45.07.74.13,1.1l.14.85.12.87.17-1.29.14-1.06.14-.88.1,1.59c.01.2.11.5.1.71-.01.43.03.72.12,1.07.12.47-.14,1.01.14,1.47l.03-1.67c0-.09.12-.37.12-.45.03-.45-.02-1.3.05-1.73.24-1.5.01-.88.14-2.38.67,1.45.44,1.4.65,2.67l.13.78.12,1.19.19-1.07.15-.84c.03,1.39.04-3.31.14-1.02v.25c.03.44.08.74.15,1.19.12.77-.12,1.49.17,2v1.93c.59-.3.07-1.26.44-2.13v-.94c0-.29.13-.71.27-.65l.24,1.22.52-1.48h1.4c-.02.38.32,1.67.49,1.66.13,0,.32-.17.37-.33l.43-1.44.09,1.11.15.86c.2,1.16.07,1.58.26.93l.35-1.21.45,1.5c.05.16.33.18.43.18l.41,1.39h5.39s.29-1.1.29-1.1c.05-.18.13-.56.15-.75l.13-.95.16-1.16.13-.93.15-1.16.15-.92c.04-.36.04-.62.12-1.05l.09,1.28c.29,1.02-.07,1.19.23,2.01l.08,1.58c.1-.43.17-.76.2-1.04l.14-1.17c.19-1.53.35-1.3.53-2.62l.45,1.55c.28-.62.24-2.84.6-2.9.05.38.08.64.15.88l.08.31c.02.09.24-.02.24-.11,0-.51.23-1.18.36-1.26.08-.05.36,0,.34.02.04.48.07.7.13,1.06.14.84-.11,1.5.17,2.09l.03,1.75c0,.16.14.49.25.72l.02-1.63c0-.21.1-.48.11-.72l.07-1.75.2-1.21.08,1.58c.3.83-.09,1.07.24,2.03l.02.92h1.87c0,.55.05.82.1,1.18l.14,1.07c.04.31.05.54.15.86l.06-1.76c0-.12.13-.42.13-.54l-.02-1.38c0-.11.13-.42.13-.54l.06-2c.22.52.05,1.06.14,1.57.03.13.13.45.13.6l-.02,1.09c0,.17.11.53.12.7l.09,2.03c.12-.36.08-.92.09-1.23l.14-.43.02-1.75.13-.35v-1.94c.4.19.25.7.31,1.09s.11.69.17,1.21h.06s.15-.82.15-.82l.07-1.29c.01-.23.13-.5.11-.75-.04-.44.04-1.14.17-1.43.06-.13.4-.08.38-.03.03.49.11.68.13,1.06l.07,1.28c.02.29.13.58.11.85-.03.46.04.84.26.99.02-.51.05-.81.16-1.21l.02-.92h.27c-.02,1.52.18.37.16,1.73v.31c0,.08.14.05.26.05l.05-1.39c.04-.34.13-.66.11-1.05s.06-.73.1-1.05c.06-.56.11-.96.27-1.48l.11-.36c.03-.08.24.02.24.11,0,.32-.02,1.03.04,1.33.28,1.47-.07.64.21,1.72l.13.89.09-1.29c.06-.32.12-.66.11-1.04-.01-.41.1-.68.12-1.06l.06-1.2c.02-.31.11-.56.15-.86l.15-1.16c.05-.38.08-.61.12-1.16h.51s.26,1.05.26,1.05c.32,1.32.14.77.4,2.4.13.8.13,2,.24,1.34.14-.81.22-.56.41-1.8l.15-.93.14-.85.1-1.12.2,1.07.11.69c.09.55.05,1.68.17,1.17l.06-.25c.09-.37.25-1.76.29-2.36.28.11.23.67.29,1.08l.17,1.31c.35-.1.31-2.3.58-2.83h1.2c.11.36.19.84.25,1.23.22,1.47-.09.61.33,1.9l.09-1.11.15-.85.13-.76c-.02-.3.08-.19.13.02l.37,1.41.49,1.76.42,1.52.03,1.14c.01.37.14.66.13,1.06-.03,1.07.2.53.16,2.47.05-.06.12-.18.13-.21,0-.53.03-.83.1-1.23l.15-.85.05-1h.54c.04.47.07.78.13,1.17l.14.93c.06.42.06.86.17,1.27l.56,1.98.19.87h.08s.15-.8.15-.8l.08-.62c.25-.59-.03-1.39.2-1.34.08.01.2.13.22.24l.2,1.06.5-1.44c.21-.1.67-.12.88,0,.51,1.37.44,1.53.61,2.7l.14.94.12.93h2.68s.41-1.45.41-1.45l.33,1.12c.02.05.05.29.02.29l-.22.02-.59.2c-.76.26-1.61.04-2.35.08-.03.42-.07.64-.13.92l-.05.24c-.08.35-.47-1.21-.49-1.49l-.4,1.19c-.05.13-.19.31-.27.33-.1.02-.31-.16-.35-.32l-.18-.69-.13-.23c-.32.86-.23,2.15-.5,2.84h-1.68s-.44,1.41-.44,1.41c-.03.09-.08.19-.11.25l-.07-1.04-.14-.85c-.05-.3-.1-.6-.13-.92l-.02-.26c0-.05-.07.1-.08.15l-.13,1.02-.15,1.17-.14.93-.15,1.17-.14.84-.11,1.13-.12-.82-.15-1.17c.03.26-.24-2.19-.24-1.12v1.03c0,.19-.11.54-.12.71-.04.57-.03,1.21-.04,1.8l-.12.29-.05,2.06-.23-.97c-.05-.19-.02-.6-.02-.91,0-.81-.22-.18-.16-1.99-.04-.27-.11-.27-.11,0-.04.47-.08.79-.14,1.23s-.02,1.25-.05,1.65c0,.08-.13.35-.13.44-.01.38.03,1.19-.03,1.57l-.15.95h-.38c-.02-.43-.05-.74-.13-1.09-.04-.28.04-.96-.04-1.2l-.13-.43-.02-1.47c-.27.11-.3.53-.28.95.07,1.4-.21.27-.15,2.32l-.12.48-.06.23s-.09-.08-.11-.14l-.14-.67c-.04-.18-.04-.38-.1-.39s-.22.14-.23.25Z"/>
            <path class="st20" d="M562.39,86.19c.25-.31.38-.8.41-1.42l.54.04c.19.36.29.89.38,1.44.17-.43.31-.84.42-1.25l.17.03c.13.45.25.8.41,1.24l.19-1.05c.02-.11.16-.24.22-.25.16-.01,0,.27.2,1.43l.15.92.1.59.17-.75c.07-.32.1-.51.28-.85l.32,1.47c-.3-.03-.5.1-.57.46l-.2,1.04c-.24-.52-.33-.92-.44-1.58l-.42,1.25h-.19s-.03-.16-.05-.22l-.19-.69s-.19-.05-.2,0l-.05.21-.17.71-.2-.02-.36-1.13h-1.38s-.4,1.4-.4,1.4l-.91-.02-.41-1.44-.44,1.5-.4-1.35c-.08-.27-.58-.12-.64.18s-.14.72-.21,1.01c-.05.19-.43.17-.54.03-.15-.21-.29-.72-.35-1.12.05-.33-.05-.22-.14-.02l-.15,1.2-.13.93-.14.94c-.07.44-.27.94-.41,1.38l-.81.04c-.44-1.46,0-.46-.31-2.28-.14-.85.17-.97-.3-2.03l-.02,1.64c0,.5-.24.85-.15,2.41l-.15.46v1.4s-1.44,0-1.44,0v-1.9s-.15-.45-.15-.45c.12.4-.14-2.96-.16-2.29.01-.51.05-1.18-.06-1.7-.2.43.1,1.66-.21,2.12v1.88c0,.08-.12.36-.15.44v1.91s-.58,0-.58,0c.04-2.03-.14-.81-.15-2.09,0-1.05-.21-.42-.15-2.29l-.25-.03s0,.3-.03.38l-.22.86c-.18-.31-.17-.54-.27-.87l-.54-1.81s0-.31,0-.36-.08-.1-.1-.06l-.1.23-2.58-.02c-.13,0-.42-.42-.49-.18l-.3,1.06c-.21.73-.13.96-.28,1.93l-.15.93-.11.82-.11-1.13-.14-.85c-.25-1.52.08-.77-.55-2.56l-8.01-.04c-.26,0-.61-.49-.91-.1-.2.25-.32.82-.33,1.3h-.51s-.48,1.75-.48,1.75l-.42,1.5-1.87.02c-.01-.58-.15-1.01-.38-1.47l-.42,1.47h-1.34s-.41-1.48-.41-1.48c-.14.31-.19.54-.26.84l-.13.63h-.49s-.31,1.08-.31,1.08c-.03.11-.04.36-.07.61-.31-.3-.19-.75-.47-1.56-.56,1.31-.45,1.92-.95,3.1-.14.03-.37.05-.45.15s-.11.45-.15.64l-.15.67c-.22-.16-.24-.57-.29-.96l-.15-1.16-.12-.93-.37-.02-.15-.88c-.07-.42-.02-1.29-.05-1.72,0-.09-.13-.36-.13-.45,0-.4.03-1.24-.04-1.64-.06-.34-.12-.64-.12-.99v-.52c0-.13-.31-.01-.36-.11-.14-.26-.05-1,.07-1.34l.03-1.15c.29-.78-.03-1.74.24-1.99.09-.09.3-.12.46-.14v-1.37s.14-.47.14-.47l.02-1.68.14-.53c.09-.34-.03-1.18.03-1.55l.12-.78c.07-.45.22-1.1.32-1.47.03-.04.25-.04.25.04s0,.35.02.43l.34,1.28c.08.3.07.7.11,1.01l.14.95.14.93c.04.26.21.77.26,1.02.02.07.14.15.19.16.21.04-.05-.51.2-1.11l.07-.84.14-.85c.08-.49.28-.99.47-1.48l.43,1.47c.13.02.34.03.41.13.08.12.11.47.14.7l.16,1.27c.03.28.11.6.2,1.04l.08-1.58c.28-.72-.06-1.07.22-1.64l.09-1.64c.11.43.08.76.14,1.11l.14.85c.06.38.1.75.13,1.2.06,1.07.11-.54.22-1.21l.15-.85.08-1.11.35,1.12.09.7.34-1.11.09-.68.53,1.67c.17.03.38.04.46.14s.11.48.15.64c.14.51.23.91.3,1.4l.13.85c.05.33.12.69.12,1.03v.31c0,.08.19.08.23.05l.17-.63c.03-.13.09-.3.14-.32.07-.03.16.17.2.32l.32,1.09c.13.02.33.05.41.13.17.17.04.48.22,1.52l.15.85.05.77.95-.02.17.74c.03.13.07.38.1.49.04.13.23.18.36.18h7.8s0-1.83,0-1.83l.14-.44v-1.65c.01-.08.12-.36.15-.44v-1.91s.58,0,.58,0c-.06,2.08.18.82.15,2.2,0,.39.04.64.11,1,.12.6-.14,1.73.39,1.69.47-.03.28.67.56,1.39h2.42c.09,0,.26-.05.31-.12.14-.17.07-.51.22-1.51l.13-.85c.07-.49.18-.88.3-1.4l.13-.58c.03-.16.32-.12.42-.22.26-.26.19-1.12.25-1.54.06-.38.12-.69.11-1.08-.03-1.4.2-.12.15-2.21h.56c0,.55.04.95.12,1.4l.15.91.1,1.06.11-1.13.15-.86c.05-.3.19-2.26.23-1.36.01.27,0,.86.05,1.11.06.36.12.67.12,1.06-.03,1.11.2.49.16,2.47.06-.06.11-.16.12-.21l.11-.67.09-.84.16-1.18c.17.39.34.86.46,1.33l.28,1.17c.11.46.32.74.61.6l.14.95c.04.29.09.56.15.85l.04,1.02c.35-.13.24-.67.3-1.08.07-.44.11-.77.16-1.26l.25.04.03.95c.1.31.13.61.14,1.04-.01.05.27.04.25-.01.02-.4.08-.79.14-1.1.09-.43-.08-.92.27-1.19l.19.85c.03.13.26.14.26.02,0-.34.07-.79.14-1.07.09-.42-.1-.97.31-1.19v1.94s.14.32.14.36c.02.46-.03,1.4.04,1.89.06.44.11.75.13,1.18v.26c.01.05.13-.1.13-.16v-1.25s.14-.48.14-.48c-.04-2.11.09-.56.17-2.31v-.26c.01-.05.11.1.13.17l.31,1.46h.5s.31,1.09.31,1.09l.12.66.1-1.12.14-.84c.07-.38.11-.74.13-1.17v-.26c.04-.55.18.89.23,1.17l.15.86.07,1.06c.18-.18.23-.48.3-.83l.1-.51s.09-.17.1-.13.09.17.1.21l.28,1.22Z"/>
          </g>
        </g>
      </g>
    </g>
  </g>
  <g class="st16">
    <text class="st19" transform="translate(213 130)"><tspan x="0" y="0">STUDIO</tspan></text>
    <text class="st18" transform="translate(353.5 130)"><tspan x="0" y="0">.COM</tspan></text>
  </g>
  <g class="st16">
    <path class="st23" d="M213.88,160v-7.28h2.49c.57,0,1.03.1,1.4.29.37.19.64.46.82.8s.27.72.27,1.16-.09.82-.27,1.15-.45.59-.81.78c-.36.19-.83.28-1.4.28h-1.98v-.83h1.93c.38,0,.69-.06.93-.17.23-.11.4-.27.51-.48.11-.21.16-.45.16-.73s-.05-.54-.16-.75c-.11-.21-.28-.38-.51-.5-.23-.12-.55-.18-.93-.18h-1.51v6.46h-.93ZM218.06,160l-1.76-3.28h1.04l1.79,3.28h-1.07Z"/>
    <path class="st23" d="M224.31,160v-7.28h4.43v.82h-3.51v2.37h3.27v.82h-3.27v2.44h3.55v.82h-4.48Z"/>
    <path class="st23" d="M237.27,160.1c-.62,0-1.18-.15-1.66-.45-.49-.3-.87-.73-1.15-1.29-.28-.56-.42-1.22-.42-1.99s.14-1.44.42-1.99c.28-.56.66-.99,1.15-1.29s1.04-.45,1.66-.45c.37,0,.72.05,1.04.16s.62.26.88.47c.26.21.48.46.65.75.17.29.29.63.36,1h-.93c-.05-.25-.14-.47-.27-.66s-.28-.35-.46-.48-.38-.23-.6-.29-.45-.1-.68-.1c-.44,0-.83.11-1.18.33s-.63.55-.83.97c-.21.43-.31.95-.31,1.57s.1,1.14.31,1.57c.21.43.49.75.84.97.35.22.74.33,1.18.33.24,0,.47-.03.68-.1.22-.07.42-.17.6-.29.18-.13.33-.29.46-.48.13-.19.21-.41.27-.66h.93c-.06.37-.18.7-.35,1s-.39.54-.65.75-.55.37-.88.48c-.33.11-.68.16-1.05.16Z"/>
    <path class="st23" d="M248.58,160.1c-.62,0-1.18-.15-1.66-.45-.49-.3-.87-.73-1.15-1.29-.28-.56-.42-1.22-.42-1.99s.14-1.44.42-1.99c.28-.56.66-.99,1.15-1.29s1.04-.45,1.66-.45,1.18.15,1.66.45.87.73,1.15,1.29c.28.56.42,1.22.42,1.99s-.14,1.43-.42,1.99c-.28.56-.66.99-1.15,1.29-.48.3-1.04.45-1.66.45ZM248.58,159.24c.43,0,.82-.11,1.17-.33.35-.22.63-.54.83-.97.21-.43.31-.95.31-1.57s-.1-1.15-.31-1.58c-.21-.43-.48-.75-.83-.97-.35-.22-.74-.33-1.17-.33s-.83.11-1.18.33-.63.55-.84.97c-.21.43-.31.95-.31,1.57s.1,1.14.31,1.57.49.75.84.97.75.33,1.18.33Z"/>
    <path class="st23" d="M257.28,160v-7.28h2.49c.57,0,1.03.1,1.4.29.37.19.64.46.82.8s.27.72.27,1.16-.09.82-.27,1.15-.45.59-.81.78c-.36.19-.83.28-1.4.28h-1.98v-.83h1.93c.38,0,.69-.06.93-.17.23-.11.4-.27.51-.48.11-.21.16-.45.16-.73s-.05-.54-.16-.75c-.11-.21-.28-.38-.51-.5-.23-.12-.55-.18-.93-.18h-1.51v6.46h-.93ZM261.46,160l-1.76-3.28h1.04l1.79,3.28h-1.07Z"/>
    <path class="st23" d="M268.64,152.72v7.28h-.93v-7.28h.93ZM269.98,160h-1.76v-.82h1.7c.59,0,1.08-.11,1.47-.34.39-.23.68-.55.87-.97s.29-.93.29-1.52-.1-1.08-.29-1.5c-.19-.42-.47-.74-.85-.96s-.85-.34-1.41-.34h-1.83v-.82h1.89c.71,0,1.32.14,1.82.43s.89.71,1.16,1.25c.27.54.4,1.19.4,1.94s-.14,1.41-.41,1.96c-.27.55-.66.96-1.18,1.26s-1.15.44-1.88.44Z"/>
    <path class="st23" d="M279.05,160.06c-.18,0-.34-.06-.47-.19-.13-.13-.19-.28-.19-.47s.06-.34.19-.47c.13-.13.28-.19.47-.19s.34.06.47.19c.13.13.19.28.19.47s-.06.34-.19.47c-.13.13-.28.19-.47.19Z"/>
    <path class="st23" d="M292.18,160v-7.28h.93v6.46h3.37v.82h-4.3Z"/>
    <path class="st23" d="M301.84,160v-7.28h4.43v.82h-3.51v2.37h3.27v.82h-3.27v2.44h3.55v.82h-4.48Z"/>
    <path class="st23" d="M311.22,160l2.64-7.28h1.07l2.68,7.28h-.98l-1.54-4.32c-.09-.27-.2-.6-.33-1-.13-.4-.28-.91-.46-1.53h.18c-.18.62-.33,1.14-.46,1.55-.13.4-.23.73-.32.98l-1.5,4.32h-.99ZM312.55,157.97v-.81h3.74v.81h-3.74Z"/>
    <path class="st23" d="M322.75,160v-7.28h2.49c.57,0,1.03.1,1.4.29.37.19.64.46.81.8.18.34.27.72.27,1.16s-.09.82-.27,1.15c-.18.33-.45.59-.81.78-.37.19-.83.28-1.4.28h-1.98v-.83h1.93c.38,0,.69-.06.92-.17.23-.11.4-.27.51-.48.11-.21.16-.45.16-.73s-.05-.54-.16-.75c-.11-.21-.28-.38-.51-.5-.23-.12-.54-.18-.93-.18h-1.51v6.46h-.93ZM326.93,160l-1.76-3.28h1.04l1.79,3.28h-1.07Z"/>
    <path class="st23" d="M333.18,160v-7.28h1.09l2.96,4.65c.08.12.17.28.28.46s.23.4.36.64c.13.24.26.49.38.76h-.13c-.03-.28-.05-.55-.06-.8-.01-.25-.02-.49-.02-.71s0-.4,0-.55v-4.46h.93v7.28h-1.1l-2.64-4.14c-.12-.19-.24-.39-.36-.59-.12-.2-.26-.44-.42-.72-.16-.28-.35-.62-.58-1.03h.17c.02.36.03.7.04,1s.02.57.03.8c0,.23.01.41.01.54v4.15h-.93Z"/>
    <path class="st23" d="M345.28,160.06c-.18,0-.34-.06-.47-.19s-.19-.28-.19-.47.06-.34.19-.47.28-.19.47-.19.34.06.47.19.19.28.19.47-.06.34-.19.47-.28.19-.47.19Z"/>
    <path class="st23" d="M361.35,160.1c-.62,0-1.18-.15-1.66-.45-.49-.3-.87-.73-1.15-1.29-.28-.56-.42-1.22-.42-1.99s.14-1.44.42-1.99c.28-.56.66-.99,1.15-1.29.49-.3,1.04-.45,1.66-.45.37,0,.72.05,1.04.16.33.11.62.26.88.47.26.21.48.46.65.75.17.29.29.63.36,1h-.93c-.05-.25-.14-.47-.27-.66-.13-.19-.28-.35-.46-.48-.18-.13-.38-.23-.6-.29s-.45-.1-.68-.1c-.44,0-.83.11-1.18.33s-.63.55-.83.97c-.21.43-.31.95-.31,1.57s.1,1.14.31,1.57c.21.43.49.75.84.97.35.22.74.33,1.18.33.24,0,.47-.03.68-.1.22-.07.42-.17.6-.29.18-.13.33-.29.46-.48.12-.19.21-.41.27-.66h.93c-.06.37-.18.7-.35,1-.17.29-.39.54-.65.75s-.55.37-.88.48c-.33.11-.68.16-1.05.16Z"/>
    <path class="st23" d="M372.66,160.1c-.62,0-1.18-.15-1.66-.45-.49-.3-.87-.73-1.15-1.29-.28-.56-.42-1.22-.42-1.99s.14-1.44.42-1.99c.28-.56.66-.99,1.15-1.29.49-.3,1.04-.45,1.66-.45s1.18.15,1.66.45.87.73,1.14,1.29c.28.56.42,1.22.42,1.99s-.14,1.43-.42,1.99c-.28.56-.66.99-1.14,1.29-.48.3-1.04.45-1.66.45ZM372.66,159.24c.43,0,.82-.11,1.17-.33.35-.22.63-.54.84-.97.21-.43.31-.95.31-1.57s-.1-1.15-.31-1.58c-.21-.43-.49-.75-.84-.97-.35-.22-.74-.33-1.17-.33s-.83.11-1.18.33-.63.55-.84.97c-.21.43-.31.95-.31,1.57s.1,1.14.31,1.57c.21.43.49.75.84.97s.75.33,1.18.33Z"/>
    <path class="st23" d="M381.36,160v-7.28h1.09l2.96,4.65c.08.12.17.28.28.46s.23.4.36.64c.13.24.25.49.38.76h-.13c-.03-.28-.05-.55-.06-.8-.01-.25-.02-.49-.02-.71s0-.4,0-.55v-4.46h.93v7.28h-1.1l-2.64-4.14c-.12-.19-.24-.39-.36-.59-.12-.2-.26-.44-.42-.72-.16-.28-.35-.62-.58-1.03h.17c.02.36.03.7.04,1s.02.57.03.8c0,.23.01.41.01.54v4.15h-.93Z"/>
    <path class="st23" d="M392.9,160v-7.28h1.09l2.96,4.65c.08.12.17.28.28.46s.23.4.36.64c.13.24.26.49.38.76h-.13c-.03-.28-.05-.55-.06-.8-.01-.25-.02-.49-.02-.71s0-.4,0-.55v-4.46h.93v7.28h-1.1l-2.64-4.14c-.12-.19-.24-.39-.36-.59-.12-.2-.26-.44-.42-.72-.16-.28-.35-.62-.58-1.03h.17c.02.36.03.7.04,1s.02.57.03.8c0,.23.01.41.01.54v4.15h-.93Z"/>
    <path class="st23" d="M404.43,160v-7.28h4.43v.82h-3.51v2.37h3.27v.82h-3.27v2.44h3.55v.82h-4.48Z"/>
    <path class="st23" d="M417.38,160.1c-.62,0-1.18-.15-1.66-.45-.49-.3-.87-.73-1.15-1.29-.28-.56-.42-1.22-.42-1.99s.14-1.44.42-1.99c.28-.56.66-.99,1.15-1.29.49-.3,1.04-.45,1.66-.45.37,0,.71.05,1.04.16.33.11.62.26.88.47.26.21.48.46.65.75.17.29.29.63.36,1h-.93c-.05-.25-.14-.47-.27-.66-.12-.19-.28-.35-.46-.48-.18-.13-.38-.23-.6-.29s-.45-.1-.68-.1c-.44,0-.83.11-1.18.33s-.63.55-.83.97c-.21.43-.31.95-.31,1.57s.1,1.14.31,1.57c.21.43.49.75.84.97.35.22.74.33,1.18.33.24,0,.46-.03.68-.1.22-.07.42-.17.6-.29.18-.13.33-.29.46-.48.13-.19.21-.41.27-.66h.93c-.06.37-.18.7-.35,1-.17.29-.39.54-.65.75s-.55.37-.88.48c-.33.11-.68.16-1.05.16Z"/>
    <path class="st23" d="M425.34,153.54v-.82h5.5v.82h-2.28v6.46h-.93v-6.46h-2.29Z"/>
    <path class="st23" d="M436.42,160.06c-.18,0-.34-.06-.47-.19s-.19-.28-.19-.47.06-.34.19-.47.28-.19.47-.19.34.06.47.19.19.28.19.47-.06.34-.19.47-.28.19-.47.19Z"/>
  </g>
</svg>