<?xml version="1.0" encoding="UTF-8"?>
<svg id="Layer_1" data-name="Layer 1" xmlns="http://www.w3.org/2000/svg" viewBox="0 0 600 200">
  <defs>
    <style>
      .cls-1 {
        stroke: #d0cdc5;
      }

      .cls-1, .cls-2, .cls-3, .cls-4, .cls-5, .cls-6, .cls-7, .cls-8, .cls-9, .cls-10, .cls-11, .cls-12, .cls-13, .cls-14 {
        fill: none;
      }

      .cls-1, .cls-6 {
        stroke-width: 1.5px;
      }

      .cls-2, .cls-3 {
        stroke: #c0392b;
      }

      .cls-2, .cls-3, .cls-4, .cls-5, .cls-7, .cls-8, .cls-9, .cls-10, .cls-11, .cls-12, .cls-13, .cls-15, .cls-14 {
        stroke-miterlimit: 2.4;
      }

      .cls-2, .cls-3, .cls-4, .cls-5, .cls-7, .cls-8, .cls-9, .cls-11, .cls-13 {
        stroke-linecap: round;
      }

      .cls-2, .cls-4 {
        stroke-width: 1.8px;
      }

      .cls-16 {
        fill: #f49b00;
        stroke: #f49b00;
      }

      .cls-17 {
        font-size: 13.2px;
      }

      .cls-17, .cls-3, .cls-18, .cls-19, .cls-7, .cls-10, .cls-20, .cls-14, .cls-21 {
        isolation: isolate;
      }

      .cls-17, .cls-22 {
        fill: #f5f0e8;
      }

      .cls-17, .cls-20, .cls-21 {
        font-family: Impact, Impact;
      }

      .cls-3 {
        stroke-width: 3px;
      }

      .cls-3, .cls-14 {
        opacity: .4;
      }

      .cls-4, .cls-5 {
        stroke: #a89f94;
      }

      .cls-5 {
        stroke-width: 1.32px;
      }

      .cls-23 {
        letter-spacing: .37em;
      }

      .cls-24 {
        letter-spacing: .4em;
      }

      .cls-25 {
        letter-spacing: .36em;
      }

      .cls-19 {
        fill: #a89f94;
        font-family: Inter-Regular, Inter;
        font-size: 10px;
        font-variation-settings: 'opsz' 14, 'wght' 400;
      }

      .cls-6, .cls-9, .cls-11, .cls-15, .cls-14 {
        stroke: #e8a020;
      }

      .cls-7 {
        opacity: .35;
        stroke: #000;
        stroke-width: 2.7px;
      }

      .cls-8 {
        stroke: #4a4740;
      }

      .cls-8, .cls-13 {
        stroke-width: .6px;
      }

      .cls-26, .cls-20 {
        fill: #e8a020;
      }

      .cls-9 {
        stroke-width: 1.68px;
      }

      .cls-10 {
        opacity: .3;
        stroke: #eceae4;
        stroke-width: .3px;
      }

      .cls-11 {
        stroke-width: 2.1px;
      }

      .cls-20 {
        font-size: 34px;
        letter-spacing: .05em;
      }

      .cls-12 {
        stroke: #3d3a36;
        stroke-width: .9px;
      }

      .cls-13 {
        stroke: #6b2e25;
      }

      .cls-15 {
        fill: #141414;
        stroke-width: 1.74px;
      }

      .cls-14 {
        stroke-width: .72px;
      }

      .cls-21 {
        fill: #0d0d0d;
        font-size: 42px;
        letter-spacing: .07em;
      }
    </style>
  </defs>
  <rect class="cls-22" width="600" height="200" rx="10" ry="10"/>
  <g>
    <rect class="cls-15" x="19.8" y="42.4" width="170.4" height="115.2" rx="6" ry="6"/>
    <path class="cls-12" d="M37.44,103c21.53-37.31,69.23-50.11,106.54-28.58,11.87,6.85,21.73,16.71,28.58,28.58"/>
    <path class="cls-3" d="M155.16,82.24c6.97,5.85,12.86,12.88,17.4,20.76"/>
    <line class="cls-4" x1="38.46" y1="103.6" x2="48.9" y2="109.6"/>
    <line class="cls-8" x1="42.06" y1="97.96" x2="46.98" y2="101.38"/>
    <line class="cls-8" x1="46.14" y1="92.62" x2="50.76" y2="96.52"/>
    <line class="cls-8" x1="50.7" y1="87.7" x2="54.96" y2="91.96"/>
    <line class="cls-5" x1="55.62" y1="83.14" x2="63.36" y2="92.38"/>
    <line class="cls-8" x1="60.96" y1="79.06" x2="64.38" y2="83.98"/>
    <line class="cls-8" x1="66.6" y1="75.46" x2="69.6" y2="80.68"/>
    <line class="cls-8" x1="72.54" y1="72.4" x2="75.06" y2="77.86"/>
    <line class="cls-5" x1="78.72" y1="69.82" x2="82.86" y2="81.1"/>
    <line class="cls-8" x1="85.14" y1="67.84" x2="86.7" y2="73.6"/>
    <line class="cls-8" x1="91.68" y1="66.34" x2="92.7" y2="72.28"/>
    <line class="cls-8" x1="98.28" y1="65.5" x2="98.82" y2="71.44"/>
    <line class="cls-5" x1="105" y1="65.2" x2="105" y2="77.2"/>
    <line class="cls-8" x1="111.72" y1="65.5" x2="111.18" y2="71.44"/>
    <line class="cls-8" x1="118.32" y1="66.34" x2="117.3" y2="72.28"/>
    <line class="cls-8" x1="124.86" y1="67.84" x2="123.3" y2="73.6"/>
    <line class="cls-5" x1="131.28" y1="69.82" x2="127.14" y2="81.1"/>
    <line class="cls-8" x1="137.46" y1="72.4" x2="134.94" y2="77.86"/>
    <line class="cls-8" x1="143.4" y1="75.46" x2="140.4" y2="80.68"/>
    <line class="cls-8" x1="149.04" y1="79.06" x2="145.62" y2="83.98"/>
    <line class="cls-11" x1="154.38" y1="83.14" x2="146.64" y2="92.38"/>
    <line class="cls-13" x1="159.3" y1="87.7" x2="155.04" y2="91.96"/>
    <line class="cls-13" x1="163.86" y1="92.62" x2="159.24" y2="96.52"/>
    <line class="cls-13" x1="167.94" y1="97.96" x2="163.02" y2="101.38"/>
    <line class="cls-2" x1="171.54" y1="103.6" x2="161.1" y2="109.6"/>
    <line class="cls-7" x1="105" y1="142" x2="161.04" y2="96.64"/>
    <line class="cls-9" x1="105" y1="142" x2="160.14" y2="95.74"/>
    <circle class="cls-14" cx="105" cy="142" r="13.2"/>
    <circle class="cls-26" cx="105" cy="142" r="12"/>
    <text class="cls-17" transform="translate(98.03 146.2)"><tspan x="0" y="0">RS</tspan></text>
    <circle class="cls-10" cx="105" cy="142" r="10.5"/>
  </g>
  <line class="cls-1" x1="195" y1="25" x2="195" y2="175"/>
  <text class="cls-21" transform="translate(213 80)"><tspan x="0" y="0">RECORDING</tspan></text>
  <g id="New_Line" data-name="New Line">
    <line class="cls-6" x1="210.77" y1="88" x2="582.77" y2="88"/>
  </g>
  <g id="Wave">
    <g>
      <path class="cls-16" d="M577.44,87.8v.23l-7.49-.02c-.21-.09-.47-.32-.8-.2l.33-1.49c.17.33.21.53.28.85l.13.63h7.56Z"/>
      <g>
        <g>
          <path class="cls-16" d="M455.41,87.79l-1.29.02-.36,1.16h-.16s-.36-1.15-.36-1.15l-.86-.03c.17-.5.26-.82.32-1.38l.52.04c.18.37.29.89.38,1.46l.51-1.49h.97c.03.51.1.76.31,1.37Z"/>
          <path class="cls-16" d="M433.08,88.03v-.23h7.43c0-.58.18-1.12.4-1.45l.15.92c.02.09.04.29.09.29h.21c.1.01-.08-.55.14-1.08l.08-.84.14-.86h.53s.04.99.04.99c.06.29.11.56.15.84l.19,1.26.1-.77.15-1.16.16-1.26.46,1.55c.06-.54.1-.86.16-1.25l.14-.84.09-1.11.53,1.84.36,1.36.18-.94.07-.62c.25-.59-.03-1.14.22-1.42.07-.09.27-.12.41-.14.13-.47.37-1.1.45-1.61l.15-.94.15-.94.04-.91h.26s.04.99.04.99c.09.32.13.59.13,1.05l.27.04c-.06-2.02.17-1.2.15-2.43,0-.37.06-.72.1-1.04.06-.56.11-.96.28-1.48l.11-.37c.28-.89.35,2.59.62,2.63.04-.45.19-2.68.48-2.43v2.42c.28.42.08,1.41.18,2.55.02.21.12.54.12.72,0,.63,0,1.01.03,1.66l.48-1.6.37,1.71.51.02.29,1.09c.11.4.27.58.56.53l.61,2.02c.05.17.11.54.18.81.03.14-.25.17-.37.18l-.42,1.43-.44-1.47-.5,1.78-.37,1.37-.17-1.26-.13-.84-.12-1.13-.1,1.28c.02-.68-.28,2.78-.22,1.8l-.07,1.28c.03-.52-.24,1.79-.21,1.57l-.16,1.18c-.03.24-.03.86-.25.88l-.76.04-.14-.95c-.04-.29-.09-.57-.15-.85l-.06-1.06c-.33.27-.22.68-.3,1.06-.3,1.35.14.84-.35,1.62l-.36-1.69c-.06-.28-.11-.6-.15-.92l-.15-1.16-.12-.94h-1.37s-.25-1.06-.25-1.06l-.6-2.02-.41,1.47h-1.34s-.39-1.4-.39-1.4c-.35,0-.78-.03-1.16.06-.13.03-.3.18-.46.18h-7.08Z"/>
        </g>
        <g>
          <path class="cls-16" d="M567.3,87.74c-.28.07-.52.07-.82,0l.42-1.39.41,1.38Z"/>
          <path class="cls-16" d="M568.17,87.74c-.27.07-.52.07-.82,0l.41-1.39.41,1.38Z"/>
          <path class="cls-16" d="M569.04,87.74c-.27.07-.52.07-.82,0l.41-1.39.41,1.38Z"/>
        </g>
        <g>
          <path class="cls-16" d="M512.3,99.41l-.14.91s-.19.09-.21.03l-.11-.37c-.13-.46-.21-.85-.29-1.31-.25-1.57.09-.68-.2-1.97-.07-.3,0-.87-.06-1.2l-.2-1.28-.1,1.11-.15.86c-.06.38-.17,1.62-.21,1.18,0-.07-.01-.35-.03-.43l-.55-1.91c-.09-.31-.15-.65-.27-.75l-.15,1.22-.15,1.16c-.03.27-.07.49-.13.78l-.09-1.49c-.02-.33-.12-.66-.11-1.04s-.03-.68-.11-.98l-.09-1.35c-.13.47-.06.86-.12,1.27-.3,1.03.07,1.2-.23,2.02l-.08,1.34c-.56-.95-.51-2.24-.57-2.64-.24-1.65.02-.49-.22-1.83-.06-.33-.03-1.05-.06-1.39,0-.1-.26-.02-.28.07l-.2,1.11-.19-.94-.05-.76c-.09-.38-.12-.7-.15-1.2-.41.47-.13.29-.35,1.6l-.18,1.09c-.02.12-.26.19-.33.15-.08-.05-.17-.22-.23-.39l-.38-1.13-.22,1.07c-.03.15-.18.39-.28.44s-.34-.08-.39-.23l-.42-1.41h-.9s-.25-1.06-.25-1.06l-.59-2-.42,1.44h-.5c-.02.28-.05.58-.11.76l-.3.94c-.06-.54-.1-.86-.16-1.24l-.15-.92-.09-1.04c-.09.46-.15.74-.19,1.05l-.15,1.16-.14.93-.15,1.17c-.04.32-.1.61-.17.95-.06.29.1.95-.21,1.08-.19.08-.6.06-.79.05l-.13-1.18-.15-1.39c-.05-.43-.04-.91-.04-1.37h-.28c0,.49,0,1.01-.04,1.47-.01.17-.14.53-.12.71.06.64-.02,1.15-.22,1.59l-.27-1.06c-.17-.66-.31-1.2-.58-1.9l-.18.75c-.07.32-.11.5-.27.87l-.09-.65-.31-1.08h-.92s-.34-1.29-.34-1.29l-.45-1.63c-.12-.44-.36.11-.5.11l-5.05.02c-.56,0-.09-.33-1.17-.26l-.4,1.42h-.93c-.04.53-.19,1.9-.29,2.32l-.03.92h-.53s-.14-.86-.14-.86l-.07-.84c-.25-.64.02-1.11-.2-1.11-.06,0-.21.13-.23.22l-.15.97-.52-.03c-.18-.4-.28-.88-.38-1.44-.22.46-.41,2.68-.39,2.63-.03.08-.23-.02-.24-.12-.02-.25-.25-2.57-.39-2.48-.07.54-.17,1.06-.37,1.42l-1.37.03-.15-.64c-.07-.33-.15-.67-.29-.82-.05.52-.08.78-.15,1.15l-.08.84-.14.86c-.03.2-.09.59-.15.77l-.35,1.21-.07-1.29c-.06-.32-.13-.65-.12-1.04s-.09-.7-.11-1.05l-.1-1.5-.13.88-.13.85-.15,1.16-.14.93-.14,1.06-.17,1.36c-.18-.4-.29-.76-.47-1.36l-.44,1.34c-.1-.47-.18-.89-.25-1.31-.18-1.07-.01-1.41-.19-1.36-.08.02-.17.13-.2.22l-.36,1.29-.3,1.17c-.05.21-.14.63-.16.83l-.14,1.18c-.05.38-.04.7-.29.99l-.07-1.06c-.08-.37-.11-.64-.15-1.12-.03-.01-.25.34-.25.5v1.58c0,.08-.12.36-.13.45-.01.44-.01,1.26-.04,1.75-.01.17-.14.54-.13.71.01.29.05.73,0,.91l-.44,1.45c-.08.26-.43.09-.5-.18l-.29-1.03c-.29-1.03-.15-1.33-.18-2.41l-.14-.46c0-.62,0-1.35-.03-1.94-.01-.17-.13-.54-.13-.71.02-.43.03-.77-.06-1.17l-.17,1.29-.15,1.14c-.04.29-.01.5-.16.79l-.03-1.95-.14-.47v-1.59s-.13-.45-.13-.45v-1.67c0-.44-.49-.65-.55-.37l-.14,1.08-.15,1.16-.14.85-.08.84-.14.85c-.17,1.02-.06,1.36-.22,1.52-.08.07-.27.1-.41.12l-.43,1.47c-.19-.49-.39-1-.46-1.48l-.14-.94-.15-.93c-.07-.43.09-.91-.28-1.2l-.05.59c-.2.65-.38,1.25-.56,1.9l-.42,1.55c-.03.1-.13.2-.2.22-.22.05.04-.53-.21-1.11l-.07-.84-.14-.85-.15-1.17c-.03-.27-.09-.63-.14-.92l-.17-1.03-.37,1.37-.57,2.08-.52,1.84-.26,1.08h-.48s-.3-1.12-.3-1.12c-.05-.18-.14-.46-.16-.69l-.05-.97c-.31-1.06.06-1.2-.23-2.04l-.08-1.58c-.1.46-.15.73-.21,1.05l-.15.92-.09,1.06-.11-.82c-.07-.33-.12-.65-.11-1.05s-.11-.68-.12-1.07l-.05-1.19-.39-1.73c-.08-.35-.15-.64-.2-1.01l-.14-.93c-.19-1.23-.03-1.36-.31-1.62-.12-.11-.33.13-.47.16-1.87.4-.97-.57-2.24,0-.3.14-.86.07-1.17,0-.13-.03-.43-.32-.48-.14-.14.53-.39,1.1-.45,1.59l-.15,1.17-.15.92-.11,1.06-.1-1.06c-.29-1.27.06-.28-.23-2.11-.05-.35-.02-.85-.05-1.25-.02-.33-.39-.42-.54-.35.06-.31.12-.6.16-.92l.15-1.17c.2-1.57.21-1.2.63-2.64.05.64.07,1.05.15,1.5l.15.85.04,1h.51s.4,1.4.4,1.4h1.26c.23-.01.25-.51.31-.76l.16-.7c.24.35.4.86.41,1.45h1.39c.11-.44.18-.84.23-1.23l.13-.99.15-1.25c.04-.33.11-.67.1-1.05s.09-.64.11-1l.07-1.27c.02-.32.11-.54.11-.88s.06-.62.11-.93l.14-.93.15-1.2c.09-.2.19-.29.15,0,.03.5.07.85.15,1.22.07.36-.04.75.32.98v-2.06c0-.18.1-.52.11-.72.09-1.19-.08-2.3.16-2.8.05-.44-.05-1.31.05-1.73l.33-1.34.1-.4c.03-.11.24-.08.33-.08h.19s0,.31.02.39l.54,1.86.29,1.2.17.98.04.7c.09.39.12.69.16,1.24.26-.36.39-.92.45-1.55l.53,1.7,1.02.02c.56.01.27-.6.69-1.57l.48-.14.47-1.56c.59.14.45-.65.87-1.5.14.5.23.79.33,1.21.04.15.3,2.42.3,2.39l.06,1.13c.02.39.13.66.12,1.07,0,.38.04.63.11,1,.07.42.02,1.29.05,1.72,0,.08.13.35.13.44v1.57c0,.08.12.36.13.44l.02,1.82c.11.26.56.07.56-.38,0-.19.22-1.82.26-2.09l.14-.88c.07-.43.02-1.3.05-1.72,0-.09.13-.36.13-.44v-1.57c0-.08.12-.36.13-.44.03-.43-.02-1.29.05-1.72.29-1.69-.08-.43.22-2.07.06-.32,0-.91.06-1.2.29-1.29-.08-1,.24-2.14l.39-1.4.08,1.04c.31,1.02-.07,1.12.23,2.02l.06.99.16,1.16.13,1.07.15,1.3c.01.29.06.28.08,0,.03-.46.08-.79.14-1.22s.02-1.25.05-1.65c0-.08.13-.36.13-.44v-1.69s.25-.45.25-.45l.07,1.08.15.85c.28,1.64-.08.49.22,1.81.06.29,0,.88.06,1.2.31,1.66-.07.45.23,2.06.14.78-.12,1.58.18,2.08v1.81c0,.23.07.51.11.73.13.72-.06,1.61.08,2.28l.2.92c.05-.64.04-1.03.04-1.66,0-.2.1-.48.11-.72l.07-1.68c.02-.49.11-.84.16-1.5.44,1.41.37,1.21.57,2.64l.13.96c.03.19.12.48.23.78l.07-1.57c.29-.75-.07-1.22.23-1.95l.04-.96s.13-.03.13.02c-.06.77.35,1.17.41,1.88.04.45.07.74.13,1.1l.14.85.12.87.17-1.29.14-1.06.14-.88.1,1.59c.01.2.11.5.1.71-.01.43.03.72.12,1.07.12.47-.14,1.01.14,1.47l.03-1.67c0-.09.12-.37.12-.45.03-.45-.02-1.3.05-1.73.24-1.5.01-.88.14-2.38.67,1.45.44,1.4.65,2.67l.13.78.12,1.19.19-1.07.15-.84c.03,1.39.04-3.31.14-1.02v.25c.03.44.08.74.15,1.19.12.77-.12,1.49.17,2v1.93c.59-.3.07-1.26.44-2.13v-.94c0-.29.13-.71.27-.65l.24,1.22.52-1.48h1.4c-.02.38.32,1.67.49,1.66.13,0,.32-.17.37-.33l.43-1.44.09,1.11.15.86c.2,1.16.07,1.58.26.93l.35-1.21.45,1.5c.05.16.33.18.43.18l.41,1.39h5.39s.29-1.1.29-1.1c.05-.18.13-.56.15-.75l.13-.95.16-1.16.13-.93.15-1.16.15-.92c.04-.36.04-.62.12-1.05l.09,1.28c.29,1.02-.07,1.19.23,2.01l.08,1.58c.1-.43.17-.76.2-1.04l.14-1.17c.19-1.53.35-1.3.53-2.62l.45,1.55c.28-.62.24-2.84.6-2.9.05.38.08.64.15.88l.08.31c.02.09.24-.02.24-.11,0-.51.23-1.18.36-1.26.08-.05.36,0,.34.02.04.48.07.7.13,1.06.14.84-.11,1.5.17,2.09l.03,1.75c0,.16.14.49.25.72l.02-1.63c0-.21.1-.48.11-.72l.07-1.75.2-1.21.08,1.58c.3.83-.09,1.07.24,2.03l.02.92h1.87c0,.55.05.82.1,1.18l.14,1.07c.04.31.05.54.15.86l.06-1.76c0-.12.13-.42.13-.54l-.02-1.38c0-.11.13-.42.13-.54l.06-2c.22.52.05,1.06.14,1.57.03.13.13.45.13.6l-.02,1.09c0,.17.11.53.12.7l.09,2.03c.12-.36.08-.92.09-1.23l.14-.43.02-1.75.13-.35v-1.94c.4.19.25.7.31,1.09s.11.69.17,1.21h.06s.15-.82.15-.82l.07-1.29c.01-.23.13-.5.11-.75-.04-.44.04-1.14.17-1.43.06-.13.4-.08.38-.03.03.49.11.68.13,1.06l.07,1.28c.02.29.13.58.11.85-.03.46.04.84.26.99.02-.51.05-.81.16-1.21l.02-.92h.27c-.02,1.52.18.37.16,1.73v.31c0,.08.14.05.26.05l.05-1.39c.04-.34.13-.66.11-1.05s.06-.73.1-1.05c.06-.56.11-.96.27-1.48l.11-.36c.03-.08.24.02.24.11,0,.32-.02,1.03.04,1.33.28,1.47-.07.64.21,1.72l.13.89.09-1.29c.06-.32.12-.66.11-1.04-.01-.41.1-.68.12-1.06l.06-1.2c.02-.31.11-.56.15-.86l.15-1.16c.05-.38.08-.61.12-1.16h.51s.26,1.05.26,1.05c.32,1.32.14.77.4,2.4.13.8.13,2,.24,1.34.14-.81.22-.56.41-1.8l.15-.93.14-.85.1-1.12.2,1.07.11.69c.09.55.05,1.68.17,1.17l.06-.25c.09-.37.25-1.76.29-2.36.28.11.23.67.29,1.08l.17,1.31c.35-.1.31-2.3.58-2.83h1.2c.11.36.19.84.25,1.23.22,1.47-.09.61.33,1.9l.09-1.11.15-.85.13-.76c-.02-.3.08-.19.13.02l.37,1.41.49,1.76.42,1.52.03,1.14c.01.37.14.66.13,1.06-.03,1.07.2.53.16,2.47.05-.06.12-.18.13-.21,0-.53.03-.83.1-1.23l.15-.85.05-1h.54c.04.47.07.78.13,1.17l.14.93c.06.42.06.86.17,1.27l.56,1.98.19.87h.08s.15-.8.15-.8l.08-.62c.25-.59-.03-1.39.2-1.34.08.01.2.13.22.24l.2,1.06.5-1.44c.21-.1.67-.12.88,0,.51,1.37.44,1.53.61,2.7l.14.94.12.93h2.68s.41-1.45.41-1.45l.33,1.12c.02.05.05.29.02.29l-.22.02-.59.2c-.76.26-1.61.04-2.35.08-.03.42-.07.64-.13.92l-.05.24c-.08.35-.47-1.21-.49-1.49l-.4,1.19c-.05.13-.19.31-.27.33-.1.02-.31-.16-.35-.32l-.18-.69-.13-.23c-.32.86-.23,2.15-.5,2.84h-1.68s-.44,1.41-.44,1.41c-.03.09-.08.19-.11.25l-.07-1.04-.14-.85c-.05-.3-.1-.6-.13-.92l-.02-.26c0-.05-.07.1-.08.15l-.13,1.02-.15,1.17-.14.93-.15,1.17-.14.84-.11,1.13-.12-.82-.15-1.17c.03.26-.24-2.19-.24-1.12v1.03c0,.19-.11.54-.12.71-.04.57-.03,1.21-.04,1.8l-.12.29-.05,2.06-.23-.97c-.05-.19-.02-.6-.02-.91,0-.81-.22-.18-.16-1.99-.04-.27-.11-.27-.11,0-.04.47-.08.79-.14,1.23s-.02,1.25-.05,1.65c0,.08-.13.35-.13.44-.01.38.03,1.19-.03,1.57l-.15.95h-.38c-.02-.43-.05-.74-.13-1.09-.04-.28.04-.96-.04-1.2l-.13-.43-.02-1.47c-.27.11-.3.53-.28.95.07,1.4-.21.27-.15,2.32l-.12.48-.06.23s-.09-.08-.11-.14l-.14-.67c-.04-.18-.04-.38-.1-.39s-.22.14-.23.25Z"/>
          <path class="cls-16" d="M562.39,86.19c.25-.31.38-.8.41-1.42l.54.04c.19.36.29.89.38,1.44.17-.43.31-.84.42-1.25l.17.03c.13.45.25.8.41,1.24l.19-1.05c.02-.11.16-.24.22-.25.16-.01,0,.27.2,1.43l.15.92.1.59.17-.75c.07-.32.1-.51.28-.85l.32,1.47c-.3-.03-.5.1-.57.46l-.2,1.04c-.24-.52-.33-.92-.44-1.58l-.42,1.25h-.19s-.03-.16-.05-.22l-.19-.69s-.19-.05-.2,0l-.05.21-.17.71-.2-.02-.36-1.13h-1.38s-.4,1.4-.4,1.4l-.91-.02-.41-1.44-.44,1.5-.4-1.35c-.08-.27-.58-.12-.64.18s-.14.72-.21,1.01c-.05.19-.43.17-.54.03-.15-.21-.29-.72-.35-1.12.05-.33-.05-.22-.14-.02l-.15,1.2-.13.93-.14.94c-.07.44-.27.94-.41,1.38l-.81.04c-.44-1.46,0-.46-.31-2.28-.14-.85.17-.97-.3-2.03l-.02,1.64c0,.5-.24.85-.15,2.41l-.15.46v1.4s-1.44,0-1.44,0v-1.9s-.15-.45-.15-.45c.12.4-.14-2.96-.16-2.29.01-.51.05-1.18-.06-1.7-.2.43.1,1.66-.21,2.12v1.88c0,.08-.12.36-.15.44v1.91s-.58,0-.58,0c.04-2.03-.14-.81-.15-2.09,0-1.05-.21-.42-.15-2.29l-.25-.03s0,.3-.03.38l-.22.86c-.18-.31-.17-.54-.27-.87l-.54-1.81s0-.31,0-.36-.08-.1-.1-.06l-.1.23-2.58-.02c-.13,0-.42-.42-.49-.18l-.3,1.06c-.21.73-.13.96-.28,1.93l-.15.93-.11.82-.11-1.13-.14-.85c-.25-1.52.08-.77-.55-2.56l-8.01-.04c-.26,0-.61-.49-.91-.1-.2.25-.32.82-.33,1.3h-.51s-.48,1.75-.48,1.75l-.42,1.5-1.87.02c-.01-.58-.15-1.01-.38-1.47l-.42,1.47h-1.34s-.41-1.48-.41-1.48c-.14.31-.19.54-.26.84l-.13.63h-.49s-.31,1.08-.31,1.08c-.03.11-.04.36-.07.61-.31-.3-.19-.75-.47-1.56-.56,1.31-.45,1.92-.95,3.1-.14.03-.37.05-.45.15s-.11.45-.15.64l-.15.67c-.22-.16-.24-.57-.29-.96l-.15-1.16-.12-.93-.37-.02-.15-.88c-.07-.42-.02-1.29-.05-1.72,0-.09-.13-.36-.13-.45,0-.4.03-1.24-.04-1.64-.06-.34-.12-.64-.12-.99v-.52c0-.13-.31-.01-.36-.11-.14-.26-.05-1,.07-1.34l.03-1.15c.29-.78-.03-1.74.24-1.99.09-.09.3-.12.46-.14v-1.37s.14-.47.14-.47l.02-1.68.14-.53c.09-.34-.03-1.18.03-1.55l.12-.78c.07-.45.22-1.1.32-1.47.03-.04.25-.04.25.04s0,.35.02.43l.34,1.28c.08.3.07.7.11,1.01l.14.95.14.93c.04.26.21.77.26,1.02.02.07.14.15.19.16.21.04-.05-.51.2-1.11l.07-.84.14-.85c.08-.49.28-.99.47-1.48l.43,1.47c.13.02.34.03.41.13.08.12.11.47.14.7l.16,1.27c.03.28.11.6.2,1.04l.08-1.58c.28-.72-.06-1.07.22-1.64l.09-1.64c.11.43.08.76.14,1.11l.14.85c.06.38.1.75.13,1.2.06,1.07.11-.54.22-1.21l.15-.85.08-1.11.35,1.12.09.7.34-1.11.09-.68.53,1.67c.17.03.38.04.46.14s.11.48.15.64c.14.51.23.91.3,1.4l.13.85c.05.33.12.69.12,1.03v.31c0,.08.19.08.23.05l.17-.63c.03-.13.09-.3.14-.32.07-.03.16.17.2.32l.32,1.09c.13.02.33.05.41.13.17.17.04.48.22,1.52l.15.85.05.77.95-.02.17.74c.03.13.07.38.1.49.04.13.23.18.36.18h7.8s0-1.83,0-1.83l.14-.44v-1.65c.01-.08.12-.36.15-.44v-1.91s.58,0,.58,0c-.06,2.08.18.82.15,2.2,0,.39.04.64.11,1,.12.6-.14,1.73.39,1.69.47-.03.28.67.56,1.39h2.42c.09,0,.26-.05.31-.12.14-.17.07-.51.22-1.51l.13-.85c.07-.49.18-.88.3-1.4l.13-.58c.03-.16.32-.12.42-.22.26-.26.19-1.12.25-1.54.06-.38.12-.69.11-1.08-.03-1.4.2-.12.15-2.21h.56c0,.55.04.95.12,1.4l.15.91.1,1.06.11-1.13.15-.86c.05-.3.19-2.26.23-1.36.01.27,0,.86.05,1.11.06.36.12.67.12,1.06-.03,1.11.2.49.16,2.47.06-.06.11-.16.12-.21l.11-.67.09-.84.16-1.18c.17.39.34.86.46,1.33l.28,1.17c.11.46.32.74.61.6l.14.95c.04.29.09.56.15.85l.04,1.02c.35-.13.24-.67.3-1.08.07-.44.11-.77.16-1.26l.25.04.03.95c.1.31.13.61.14,1.04-.01.05.27.04.25-.01.02-.4.08-.79.14-1.1.09-.43-.08-.92.27-1.19l.19.85c.03.13.26.14.26.02,0-.34.07-.79.14-1.07.09-.42-.1-.97.31-1.19v1.94s.14.32.14.36c.02.46-.03,1.4.04,1.89.06.44.11.75.13,1.18v.26c.01.05.13-.1.13-.16v-1.25s.14-.48.14-.48c-.04-2.11.09-.56.17-2.31v-.26c.01-.05.11.1.13.17l.31,1.46h.5s.31,1.09.31,1.09l.12.66.1-1.12.14-.84c.07-.38.11-.74.13-1.17v-.26c.04-.55.18.89.23,1.17l.15.86.07,1.06c.18-.18.23-.48.3-.83l.1-.51s.09-.17.1-.13.09.17.1.21l.28,1.22Z"/>
        </g>
      </g>
    </g>
  </g>
  <g class="cls-18">
    <text class="cls-21" transform="translate(213 130)"><tspan x="0" y="0">STUDIO</tspan></text>
    <text class="cls-20" transform="translate(353.5 130)"><tspan x="0" y="0">.COM</tspan></text>
  </g>
  <text class="cls-19" transform="translate(213 160)"><tspan class="cls-24" x="0" y="0">RECOR</tspan><tspan class="cls-25" x="53.83" y="0">D</tspan><tspan class="cls-24" x="64.61" y="0">. LEARN. CONNEC</tspan><tspan class="cls-23" x="211.87" y="0">T</tspan><tspan class="cls-24" x="221.98" y="0">.</tspan></text>
</svg>